<?xml version="1.0" standalone="no"?>
<!DOCTYPE svg PUBLIC "-//W3C//DTD SVG 20010904//EN"
 "http://www.w3.org/TR/2001/REC-SVG-20010904/DTD/svg10.dtd">
<svg version="1.0" xmlns="http://www.w3.org/2000/svg"
 width="1024.000000pt" height="1024.000000pt" viewBox="0 0 1024.000000 1024.000000"
 preserveAspectRatio="xMidYMid meet">

<g transform="translate(0.000000,1024.000000) scale(0.100000,-0.100000)"
fill="#000000" stroke="none">
<path d="M4480 9326 c0 -9 6 -18 13 -20 144 -40 196 -80 281 -221 75 -125 119
-156 269 -189 18 -4 27 -2 27 6 0 7 -34 23 -76 36 -89 27 -142 73 -193 168
-67 126 -173 213 -280 230 -34 5 -41 4 -41 -10z"/>
<path d="M5723 9306 c-62 -20 -126 -60 -163 -103 -36 -41 -86 -140 -96 -190
-12 -59 13 -35 56 53 73 150 165 214 309 214 58 0 79 -5 127 -31 33 -17 74
-45 92 -62 40 -39 79 -117 87 -177 8 -56 -15 -172 -50 -247 -29 -64 -30 -73
-11 -73 15 0 69 115 87 184 17 69 8 192 -19 247 -59 120 -166 190 -300 196
-47 2 -93 -3 -119 -11z"/>
<path d="M5473 9278 c-37 -39 -127 -166 -136 -190 -7 -21 -37 -24 -55 -6 -9 9
-12 8 -12 -6 0 -25 18 -56 33 -56 7 0 21 17 32 37 11 21 31 51 46 68 14 16 46
60 72 97 26 37 55 72 65 77 14 9 14 10 1 11 -8 0 -29 -15 -46 -32z"/>
<path d="M4217 9256 c-7 -19 18 -40 39 -32 8 3 14 14 12 23 -4 22 -43 29 -51
9z"/>
<path d="M5916 9231 c-3 -4 -41 -10 -85 -13 -95 -5 -154 -36 -208 -106 -49
-65 -40 -78 16 -22 57 57 104 83 183 100 49 11 61 11 90 -3 31 -15 34 -15 52
3 11 10 16 25 13 34 -7 17 -52 22 -61 7z"/>
<path d="M6386 9182 c-14 -43 -57 -82 -102 -93 l-44 -11 31 -36 c29 -32 31
-40 27 -94 -2 -32 -2 -58 1 -58 3 0 21 9 39 20 41 25 76 25 118 0 38 -24 45
-18 43 42 -2 49 12 82 41 98 32 17 24 27 -31 40 -40 10 -55 19 -68 42 -9 17
-23 40 -32 51 l-16 21 -7 -22z"/>
<path d="M4905 9137 c-12 -28 42 -97 95 -123 58 -29 120 -40 120 -22 0 7 -26
21 -59 30 -56 17 -102 54 -138 114 -11 18 -11 18 -18 1z"/>
<path d="M5250 9130 c0 -5 5 -10 10 -10 6 0 10 5 10 10 0 6 -4 10 -10 10 -5 0
-10 -4 -10 -10z"/>
<path d="M4135 9090 c-3 -5 -1 -18 5 -27 11 -17 11 -17 6 0 -3 9 -1 17 4 17 6
0 10 5 10 10 0 13 -17 13 -25 0z"/>
<path d="M5680 9014 c-197 -122 -243 -139 -436 -168 -132 -20 -275 -21 -344
-2 -49 13 -67 13 -170 -2 -63 -9 -117 -17 -119 -19 -3 -2 0 -8 5 -13 8 -8 119
-1 259 16 27 4 46 3 42 -2 -4 -4 -29 -11 -55 -15 -40 -5 -33 -7 43 -9 80 -2
85 -3 45 -11 -25 -4 -109 -8 -187 -8 -118 -1 -143 -4 -143 -15 0 -8 4 -17 9
-20 4 -3 84 -1 177 4 154 9 171 12 187 32 21 25 24 23 72 -62 20 -36 71 -120
113 -188 74 -120 76 -122 89 -98 28 54 131 295 153 359 13 37 26 67 29 66 3 0
58 -57 121 -125 63 -68 120 -122 125 -120 6 1 21 39 34 84 13 45 30 82 37 82
6 0 55 -11 108 -25 53 -14 99 -25 102 -25 13 0 -149 276 -175 298 -11 9 -12
15 -3 24 16 16 15 28 0 27 -7 0 -60 -30 -118 -65z m75 -9 c-16 -14 -37 -25
-45 -25 -8 0 3 11 25 25 51 31 58 31 20 0z m60 -25 c3 -5 1 -10 -4 -10 -6 0
-11 5 -11 10 0 6 2 10 4 10 3 0 8 -4 11 -10z m-125 -14 c0 -2 -7 -7 -16 -10
-8 -3 -12 -2 -9 4 6 10 25 14 25 6z m-55 -36 c-3 -5 -12 -10 -18 -10 -7 0 -6
4 3 10 19 12 23 12 15 0z m141 -17 c-10 -10 -19 5 -10 18 6 11 8 11 12 0 2 -7
1 -15 -2 -18z m-186 -7 c0 -2 -7 -6 -15 -10 -8 -3 -15 -1 -15 4 0 6 7 10 15
10 8 0 15 -2 15 -4z m246 -18 c4 -7 3 -8 -4 -4 -7 4 -12 2 -12 -3 0 -6 -5 -11
-11 -11 -8 0 -8 5 1 15 15 18 17 18 26 3z m-297 -1 c-2 -1 -13 -9 -24 -17 -19
-14 -19 -14 -6 3 7 9 18 17 24 17 6 0 8 -1 6 -3z m176 -17 c3 -5 -1 -10 -9
-10 -9 0 -16 5 -16 10 0 6 4 10 9 10 6 0 13 -4 16 -10z m-95 -14 c0 -3 -4 -8
-10 -11 -5 -3 -10 -1 -10 4 0 6 5 11 10 11 6 0 10 -2 10 -4z m-263 -32 c-3 -3
-12 -4 -19 -1 -8 3 -5 6 6 6 11 1 17 -2 13 -5z m293 -4 c0 -5 -4 -10 -10 -10
-5 0 -10 5 -10 10 0 6 5 10 10 10 6 0 10 -4 10 -10z m130 0 c0 -5 -4 -10 -10
-10 -5 0 -10 5 -10 10 0 6 5 10 10 10 6 0 10 -4 10 -10z m-497 -7 c-7 -2 -19
-2 -25 0 -7 3 -2 5 12 5 14 0 19 -2 13 -5z m-44 -7 c-8 -8 -88 -10 -95 -3 -4
4 17 7 46 7 29 0 51 -2 49 -4z m-126 -13 c-13 -2 -33 -2 -45 0 -13 2 -3 4 22
4 25 0 35 -2 23 -4z m482 -3 c-3 -5 -12 -10 -18 -10 -7 0 -6 4 3 10 19 12 23
12 15 0z m45 -60 c0 -5 -5 -10 -11 -10 -5 0 -7 5 -4 10 3 6 8 10 11 10 2 0 4
-4 4 -10z m-315 -10 c3 -5 1 -10 -4 -10 -6 0 -11 5 -11 10 0 6 2 10 4 10 3 0
8 -4 11 -10z m-65 -10 c0 -5 -4 -10 -10 -10 -5 0 -10 5 -10 10 0 6 5 10 10 10
6 0 10 -4 10 -10z m-50 -50 c0 -5 -5 -10 -11 -10 -5 0 -7 5 -4 10 3 6 8 10 11
10 2 0 4 -4 4 -10z m60 -10 c0 -5 -4 -10 -10 -10 -5 0 -10 5 -10 10 0 6 5 10
10 10 6 0 10 -4 10 -10z"/>
<path d="M4110 9042 c0 -4 5 -13 12 -20 9 -9 9 -12 0 -12 -7 0 -12 -10 -12
-22 1 -21 2 -20 17 7 11 20 12 30 4 33 -6 2 -9 8 -5 13 3 5 0 9 -5 9 -6 0 -11
-4 -11 -8z"/>
<path d="M3104 8964 c4 -36 13 -84 21 -107 18 -53 65 -328 65 -379 0 -40 5
-44 30 -28 13 8 12 25 -8 141 -12 73 -20 134 -18 136 2 2 16 -47 32 -109 37
-147 38 -241 2 -319 -26 -58 -67 -97 -168 -161 -71 -45 -86 -63 -110 -129 -22
-64 -12 -63 -197 -18 -68 16 -130 29 -138 29 -34 0 -4 97 40 126 32 21 102 15
225 -21 80 -23 117 -22 88 3 -21 17 -187 63 -248 68 -64 6 -109 -16 -134 -64
-17 -34 -66 -276 -66 -330 0 -42 28 -93 63 -117 14 -9 56 -25 93 -36 77 -22
285 -61 291 -55 3 2 -9 7 -26 11 -17 4 -33 10 -36 15 -3 5 8 64 25 131 16 68
30 136 30 151 0 32 -3 32 75 13 69 -16 95 -18 95 -7 0 4 -33 18 -74 30 l-74
22 7 33 c13 56 29 75 101 118 128 76 181 145 196 257 6 44 10 52 24 47 15 -5
9 23 -36 175 -30 100 -63 204 -74 232 -36 96 -19 69 105 -157 15 -27 47 -84
71 -126 24 -42 44 -81 44 -88 0 -7 26 16 58 50 101 109 109 81 -79 262 -90 88
-149 151 -131 141 18 -11 118 -75 222 -144 144 -94 186 -126 173 -132 -13 -5
-8 -7 14 -7 l33 -1 -7 63 c-6 69 -13 88 -13 39 0 -18 -2 -32 -5 -32 -3 0 -72
42 -153 94 -81 51 -173 108 -205 126 -32 18 -56 34 -53 37 2 3 13 0 25 -6 37
-20 367 -131 390 -131 18 0 21 -4 16 -27 -5 -28 -5 -28 5 -3 6 13 16 28 23 32
6 4 9 8 7 10 -10 6 -625 209 -634 208 -5 0 -6 -29 -2 -66z m-359 -985 c156
-37 175 -44 175 -64 0 -25 -60 -259 -69 -268 -9 -9 -201 37 -242 59 -30 15
-59 60 -59 91 0 39 44 213 54 213 6 0 70 -14 141 -31z"/>
<path d="M2650 7941 c-26 -50 1 -171 39 -171 25 0 105 34 142 61 35 24 37 56
8 93 -25 31 -33 32 -67 6 l-26 -21 -23 26 c-28 30 -58 32 -73 6z"/>
<path d="M3766 8981 c-4 -6 3 -29 14 -52 21 -40 21 -54 3 -113 -5 -16 -1 -18
24 -13 35 7 48 0 57 -30 10 -30 30 -29 44 2 9 20 19 25 48 25 30 0 35 3 29 18
-25 61 -27 74 -16 98 14 31 14 74 1 74 -6 0 -29 -9 -52 -21 -40 -20 -41 -20
-87 -2 -25 10 -49 19 -53 21 -3 2 -9 -2 -12 -7z"/>
<path d="M3592 8938 c3 -7 13 -15 22 -16 12 -3 17 1 14 10 -3 7 -13 15 -22 16
-12 3 -17 -1 -14 -10z"/>
<path d="M4593 8934 c-10 -26 12 -37 61 -30 47 7 55 26 10 26 -13 0 -24 5 -24
10 0 16 -40 11 -47 -6z"/>
<path d="M6675 8936 c-46 -20 -85 -71 -85 -111 0 -36 41 -95 66 -95 19 0 18 7
-6 32 -24 26 -26 75 -5 105 9 13 33 28 54 34 34 10 45 9 85 -10 36 -18 48 -31
62 -67 14 -37 15 -50 4 -88 -18 -67 -60 -108 -184 -185 -117 -73 -136 -95
-136 -154 0 -100 108 -156 288 -149 30 2 42 6 42 17 0 12 -14 15 -63 15 -124
0 -227 53 -227 115 0 35 48 81 170 159 112 72 151 124 158 209 9 126 -113 221
-223 173z"/>
<path d="M4673 8887 c-47 -7 -73 -15 -73 -23 0 -7 4 -15 8 -18 13 -8 177 28
177 39 0 14 -27 14 -112 2z"/>
<path d="M4270 8833 c-104 -18 -145 -34 -160 -64 -11 -20 -11 -21 11 -15 57
16 174 36 215 36 36 0 44 3 44 19 0 34 -20 39 -110 24z"/>
<path d="M7106 8827 c3 -10 9 -15 12 -12 3 3 0 11 -7 18 -10 9 -11 8 -5 -6z"/>
<path d="M2775 8728 c-28 -29 -65 -70 -84 -90 l-33 -36 46 -61 c67 -87 92
-102 194 -114 l86 -10 28 32 c32 36 37 85 14 130 -29 54 -126 189 -142 195
-38 14 -61 4 -109 -46z m95 -8 c9 -17 8 -20 -10 -20 -28 0 -25 -14 7 -35 46
-31 115 -99 124 -124 6 -15 6 -28 -2 -37 -17 -20 -28 -17 -22 6 4 14 -16 41
-76 104 -72 75 -81 88 -71 106 14 26 36 26 50 0z"/>
<path d="M3121 8764 c0 -11 3 -14 6 -6 3 7 2 16 -1 19 -3 4 -6 -2 -5 -13z"/>
<path d="M4860 8738 c-52 -4 -123 -11 -158 -14 l-62 -6 4 -34 c2 -19 6 -37 8
-40 3 -3 43 0 89 6 102 12 132 13 125 1 -3 -5 -51 -14 -106 -21 -66 -8 -100
-16 -97 -24 5 -15 78 -19 122 -7 22 6 35 6 35 0 0 -11 -3 -12 -82 -30 -32 -6
-58 -16 -58 -21 0 -9 35 -5 83 8 9 3 17 1 17 -5 0 -12 -46 -26 -72 -22 -15 2
-17 -3 -11 -31 3 -18 7 -34 8 -36 2 -3 105 107 198 211 38 43 65 76 60 76 -4
-1 -51 -6 -103 -11z m48 -43 c-3 -3 -45 -7 -94 -10 -49 -3 -102 -8 -119 -11
-21 -4 -27 -3 -20 4 6 6 33 13 60 15 85 6 179 7 173 2z"/>
<path d="M3978 8676 c-91 -32 -148 -67 -205 -125 -168 -172 -197 -418 -77
-670 64 -136 184 -262 305 -318 58 -28 59 -28 53 -63 -11 -63 -11 -63 34 -73
39 -8 42 -11 42 -40 0 -49 -20 -77 -75 -107 -62 -34 -95 -80 -95 -132 0 -73
44 -126 150 -181 80 -41 110 -81 110 -147 0 -54 -22 -85 -69 -95 -36 -8 -51
-1 -51 24 0 22 19 41 42 41 10 0 18 7 18 15 0 10 -10 15 -34 15 -41 0 -66 -28
-66 -73 0 -28 7 -53 71 -272 26 -88 33 -129 33 -202 1 -98 14 -132 38 -100 7
9 30 17 50 19 l38 3 -16 30 c-56 104 -73 147 -115 295 l-47 165 44 5 c30 4 53
15 74 35 27 26 30 35 30 87 0 101 -26 135 -161 211 -128 73 -132 170 -10 232
47 24 48 24 79 5 39 -24 49 -42 67 -129 8 -39 22 -88 30 -108 23 -55 81 -120
120 -134 l34 -13 -16 -30 c-9 -17 -29 -50 -45 -73 -28 -38 -31 -63 -8 -63 18
0 53 46 80 105 15 33 37 69 49 79 21 19 28 60 12 70 -5 3 -16 -5 -25 -19 -22
-34 -57 -32 -101 6 -47 41 -60 69 -90 185 -29 109 -45 138 -86 156 -16 7 -27
18 -25 24 2 6 8 32 11 58 6 40 10 46 32 46 13 0 33 5 45 11 16 9 19 17 13 46
-3 19 -8 40 -11 48 -3 8 7 17 26 24 53 18 166 99 216 154 127 141 183 270 191
444 7 123 -14 205 -78 301 -115 176 -259 252 -474 252 -69 0 -106 -6 -157 -24z
m273 -20 c157 -34 285 -138 366 -301 44 -87 40 -176 -8 -200 -42 -22 -75 -18
-110 13 -25 23 -33 38 -36 78 -5 48 -3 52 31 82 20 18 41 32 46 32 19 0 9 23
-35 78 -47 61 -108 107 -190 144 -43 20 -66 23 -165 23 -109 0 -118 -2 -180
-32 -175 -86 -281 -294 -252 -493 6 -41 13 -84 17 -95 3 -11 -4 -2 -16 20 -90
164 -53 383 90 526 117 117 272 161 442 125z m-206 -152 c0 -10 -8 -20 -18
-22 -22 -4 -35 27 -16 39 20 12 34 5 34 -17z m-24 -71 c40 -24 41 -82 3 -112
-35 -27 -59 -26 -89 4 -32 31 -32 66 1 99 31 31 46 32 85 9z m-141 -9 c0 -3
-5 -15 -11 -26 -9 -17 -13 -18 -20 -7 -15 23 -10 39 11 39 11 0 20 -3 20 -6z
m590 -81 c0 -17 -19 -35 -29 -29 -18 12 -12 36 9 36 11 0 20 -3 20 -7z m-35
-98 c0 -23 -5 -30 -19 -30 -24 0 -41 27 -33 49 4 11 15 16 29 14 18 -2 23 -9
23 -33z m-202 -38 c71 -30 137 -141 137 -232 0 -88 -55 -216 -127 -294 l-42
-46 39 92 c46 108 64 172 30 106 -31 -60 -61 -59 -122 5 -91 94 -114 184 -72
287 8 19 7 19 -17 4 -24 -16 -25 -16 -24 7 0 16 12 32 36 48 53 36 110 44 162
23z m245 -86 c-2 -9 -13 -17 -26 -19 -16 -3 -22 2 -22 16 0 11 6 22 13 25 20
7 38 -4 35 -22z m139 -23 c-3 -8 -6 -5 -6 6 -1 11 2 17 5 13 3 -3 4 -12 1 -19z
m-509 -286 c3 -17 -2 -22 -17 -22 -16 0 -21 6 -21 26 0 33 33 30 38 -4z m99
-317 l28 -24 -72 -1 c-59 0 -73 3 -73 15 0 17 32 33 67 34 12 1 35 -10 50 -24z"/>
<path d="M7276 8665 c-3 -9 1 -18 10 -22 19 -7 39 11 30 26 -10 16 -33 13 -40
-4z"/>
<path d="M6160 8660 c0 -5 5 -10 10 -10 6 0 10 5 10 10 0 6 -4 10 -10 10 -5 0
-10 -4 -10 -10z"/>
<path d="M5795 8613 c-148 -32 -288 -139 -355 -273 -49 -99 -64 -158 -64 -260
-1 -118 14 -180 69 -296 69 -142 237 -307 336 -329 17 -4 28 -12 26 -18 -37
-102 -36 -104 39 -115 65 -9 68 -30 14 -113 -74 -115 -86 -204 -50 -387 22
-112 26 -187 10 -197 -6 -3 -10 4 -10 16 0 12 -9 36 -20 53 -31 49 -186 186
-210 186 -26 0 -191 -84 -231 -117 -21 -18 -30 -21 -34 -11 -19 54 -84 292
-81 296 3 2 23 -35 45 -82 23 -46 50 -91 62 -99 21 -15 65 -11 104 11 57 30
81 101 50 149 l-18 28 30 -27 c16 -16 41 -28 54 -28 31 0 59 28 59 58 0 13 7
22 21 24 30 4 62 51 62 88 0 22 -10 42 -38 70 -22 22 -34 40 -27 40 7 0 12 5
12 11 0 7 -11 9 -30 6 -38 -8 -38 0 -1 32 45 40 48 75 11 112 -26 26 -37 30
-70 27 -35 -3 -40 -1 -40 17 0 31 -37 84 -68 96 -15 6 -41 9 -59 7 -30 -4 -32
-2 -38 38 -8 57 -43 106 -82 117 -43 13 -121 -24 -195 -92 l-56 -52 -43 40
c-43 39 -85 56 -114 45 -20 -8 -40 -48 -49 -96 -6 -34 -10 -38 -36 -38 -35 0
-80 -19 -81 -34 -2 -30 -28 65 -28 104 -1 98 59 169 180 215 227 85 320 175
319 309 -1 56 -29 133 -65 178 -56 71 -214 130 -302 113 -56 -10 -33 -29 43
-36 122 -12 210 -63 255 -151 23 -44 26 -143 6 -191 -32 -75 -77 -107 -249
-177 -197 -81 -255 -174 -211 -341 l20 -76 -43 5 c-36 4 -46 0 -68 -21 -39
-39 -37 -99 4 -129 l30 -22 -50 -44 c-44 -38 -50 -48 -50 -81 0 -40 31 -91 54
-91 7 0 17 -17 22 -37 8 -33 14 -39 47 -47 27 -7 44 -6 57 1 15 10 17 9 13 -7
-8 -32 17 -89 45 -104 42 -22 111 -38 133 -31 11 4 33 34 50 68 45 90 81 149
86 143 5 -5 -96 -285 -108 -300 -4 -4 -40 10 -81 32 -40 22 -89 45 -110 51
-35 12 -39 10 -113 -40 -95 -65 -133 -102 -156 -154 -34 -75 -23 -133 38 -188
l37 -35 -64 -19 c-79 -23 -90 -39 -79 -120 4 -32 10 -178 14 -324 l6 -266 -58
-6 c-31 -3 -59 -4 -61 -2 -2 1 -32 86 -68 187 -97 275 -138 366 -219 485 -41
59 -93 139 -117 177 -23 38 -44 64 -46 58 -1 -5 4 -37 12 -69 9 -32 22 -117
30 -189 16 -145 39 -215 111 -344 48 -85 105 -197 105 -205 0 -7 -180 143
-243 204 -65 61 -79 89 -67 132 13 45 -23 483 -55 677 -3 17 -11 32 -17 32
-11 0 -10 -41 12 -337 7 -83 10 -160 8 -170 -3 -13 -19 4 -56 61 -47 72 -51
81 -37 96 23 26 19 43 -9 36 -29 -7 -43 8 -86 94 l-32 64 21 14 c11 8 21 21
21 28 0 12 -5 12 -30 -1 l-29 -15 -31 52 c-16 29 -30 57 -30 61 0 5 -9 20 -20
34 -11 14 -20 33 -20 42 0 21 -62 141 -72 141 -4 0 -8 -7 -8 -15 0 -8 -13 -34
-30 -57 -16 -22 -30 -50 -30 -60 0 -11 -9 -31 -20 -45 -11 -14 -20 -32 -20
-40 0 -7 -11 -18 -25 -23 -15 -6 -23 -15 -19 -24 4 -11 -59 -136 -105 -206 -9
-12 -19 -6 -61 35 -39 38 -52 47 -62 37 -10 -10 -2 -22 35 -60 26 -26 47 -53
47 -60 0 -26 -110 -180 -164 -229 -55 -50 -75 -59 -128 -54 -20 2 -23 -10 -8
-25 17 -17 -45 -91 -88 -105 -51 -16 -61 -27 -39 -44 23 -17 16 -43 -19 -76
-24 -23 -33 -24 -182 -27 -86 -2 -171 -1 -188 3 -87 16 -452 305 -386 305 5 0
57 -30 117 -66 168 -102 250 -138 354 -159 56 -12 28 12 -72 59 -84 39 -272
150 -339 199 -22 17 -25 23 -15 38 9 15 8 22 -5 36 -15 14 -21 15 -41 4 -30
-16 -54 -54 -38 -59 6 -2 11 -8 11 -13 0 -6 -8 -6 -19 1 -13 6 -17 17 -14 30
3 13 -5 35 -22 59 -22 32 -25 43 -16 60 16 28 14 83 -5 137 -9 25 -17 54 -19
63 -2 9 -8 29 -14 44 -14 36 -15 35 14 35 43 0 42 12 -3 52 -89 80 -229 97
-345 42 -156 -72 -230 -222 -188 -375 13 -46 14 -47 55 -47 57 0 110 -17 143
-44 51 -42 96 -60 158 -62 71 -2 92 -9 120 -42 20 -23 24 -24 56 -13 31 11 36
10 54 -14 12 -14 25 -25 31 -25 5 0 26 -19 45 -42 20 -24 77 -74 127 -113 90
-69 105 -85 79 -85 -18 0 -63 -49 -72 -78 -4 -13 -2 -29 5 -37 7 -8 10 -26 8
-40 -3 -14 -1 -25 3 -25 5 0 9 -157 9 -350 0 -198 -4 -350 -9 -350 -8 0 -13
62 -27 330 -7 145 -17 188 -60 270 -72 138 -147 193 -263 194 -43 1 -65 -3
-68 -11 -3 -9 7 -13 34 -13 75 0 115 -19 175 -81 32 -34 70 -87 88 -123 35
-75 36 -79 10 -71 -10 3 -37 1 -60 -5 -32 -9 -44 -19 -60 -50 -51 -101 3 -190
115 -190 29 0 45 -4 46 -12 0 -7 3 -26 5 -42 5 -28 4 -28 -28 -22 -133 27
-483 65 -494 53 -4 -3 -4 -13 -1 -20 4 -10 32 -17 94 -21 92 -7 318 -32 391
-42 28 -4 42 -11 42 -21 0 -11 -7 -14 -23 -10 -49 13 -349 40 -665 62 l-82 5
0 -33 0 -34 148 -7 c470 -21 612 -43 612 -92 0 -12 -9 -10 -42 10 -79 45 -224
56 -320 24 -39 -13 -84 -52 -105 -92 l-15 -28 -120 4 -120 4 6 -52 c10 -90 -5
-84 200 -84 l183 0 11 -25 c6 -14 16 -25 22 -25 5 0 10 -4 10 -10 0 -5 -7 -10
-16 -10 -26 0 -185 -56 -254 -89 -43 -21 -67 -28 -74 -21 -5 5 -24 10 -42 10
-38 0 -78 -41 -89 -90 -6 -29 12 -170 22 -170 25 0 111 84 105 103 -2 5 7 20
19 33 20 21 10 28 -16 12 -6 -4 -17 -2 -25 3 -13 8 -12 12 5 25 55 45 282 132
409 158 122 26 138 23 188 -30 76 -82 120 -88 393 -54 88 11 165 20 172 20 19
0 16 -51 -7 -150 -23 -93 -40 -126 -73 -141 -17 -7 -14 -8 18 -5 24 3 47 14
57 27 28 33 49 116 55 210 5 78 4 88 -15 105 -20 19 -18 19 141 19 l162 0 3
498 c1 274 -1 520 -6 545 l-7 47 -344 3 c-381 3 -371 4 -390 -62 l-9 -31 -1
38 c-1 52 22 94 56 100 16 3 175 5 355 5 310 1 328 0 352 -19 14 -11 28 -34
31 -52 3 -18 7 -266 8 -551 l2 -520 58 3 c42 2 57 -1 57 -11 0 -28 -19 -35
-112 -42 -138 -9 -157 -14 -173 -46 -8 -15 -28 -33 -45 -38 -24 -9 -30 -17
-30 -41 0 -16 4 -41 10 -55 7 -21 6 -26 -5 -26 -8 0 -23 -12 -32 -27 -15 -23
-19 -58 -23 -232 l-5 -205 -39 67 c-22 38 -55 77 -76 92 -38 26 -94 108 -120
174 -18 45 -65 98 -104 118 -18 10 -54 16 -88 16 -82 -1 -137 -35 -180 -112
-32 -58 -34 -60 -98 -76 -36 -9 -81 -20 -100 -25 -53 -14 -112 -57 -147 -106
l-31 -45 -25 66 c-14 36 -44 130 -68 210 -35 120 -45 145 -61 145 -10 0 -22
-10 -27 -23 -5 -12 -32 -35 -61 -51 -68 -37 -58 -44 14 -10 31 15 58 25 60 23
2 -2 10 -27 19 -56 l15 -52 -27 -11 -26 -10 28 5 c23 5 29 1 37 -20 14 -36 14
-35 -21 -35 -18 0 -60 -5 -95 -12 -63 -11 -64 -12 -64 -45 0 -22 -5 -33 -14
-33 -12 0 -13 -6 -5 -29 16 -46 42 -63 106 -67 70 -5 164 -47 214 -96 l35 -35
17 69 c28 120 88 172 202 173 48 0 69 -6 108 -28 49 -29 103 -93 113 -134 8
-31 14 -29 49 20 42 58 113 92 190 92 67 -1 111 -19 163 -69 55 -51 77 -106
136 -336 64 -251 166 -583 190 -615 11 -15 18 -16 68 -6 58 13 75 25 102 78
31 61 12 146 -40 180 -34 22 -105 21 -139 -1 -23 -15 -25 -15 -39 11 -16 33
-45 128 -81 268 -14 55 -29 110 -35 122 l-9 22 32 -19 c18 -10 60 -22 95 -26
50 -5 76 -15 130 -50 37 -23 79 -46 94 -49 l27 -7 -23 -32 c-35 -46 -53 -86
-61 -132 -9 -58 11 -66 27 -12 7 26 31 62 58 90 78 80 196 98 307 46 50 -24
133 -97 273 -242 153 -159 230 -220 354 -280 61 -30 122 -57 136 -61 48 -15
245 -114 306 -154 130 -86 254 -234 334 -396 78 -159 103 -284 89 -457 -8 -97
-35 -257 -45 -267 -2 -2 -4 48 -4 111 0 197 -40 368 -127 543 -60 120 -115
195 -206 282 -108 102 -225 173 -404 244 -105 41 -212 99 -286 156 -34 26
-143 128 -242 228 -101 102 -196 189 -217 198 -46 21 -120 22 -164 1 -61 -29
-97 -119 -74 -189 28 -85 201 -277 370 -410 159 -126 218 -214 260 -385 28
-119 25 -126 -17 -41 -50 99 -119 173 -196 210 -34 16 -126 43 -204 61 -224
49 -340 101 -442 196 -65 60 -100 118 -141 236 -38 111 -122 389 -155 513 -58
219 -75 263 -117 303 -56 52 -129 49 -188 -7 -53 -50 -67 -103 -52 -189 21
-125 224 -847 267 -953 13 -33 22 -59 19 -59 -2 0 -24 39 -48 88 -41 82 -128
305 -246 632 -94 261 -108 295 -120 292 -6 -1 -8 2 -5 8 4 6 -1 20 -10 30 -10
11 -14 24 -9 32 4 7 4 10 -1 6 -4 -4 -22 25 -39 65 -17 39 -36 72 -41 72 -16
0 -35 15 -35 28 0 6 7 2 15 -9 8 -10 15 -14 15 -7 0 22 -33 34 -102 36 -67 2
-114 -64 -105 -146 8 -66 221 -468 405 -765 153 -247 304 -432 592 -726 175
-179 256 -242 376 -291 360 -147 537 -246 703 -392 58 -52 63 -59 58 -89 -5
-30 -3 -34 26 -43 93 -29 1022 -199 1033 -189 2 2 5 20 6 39 l3 34 -68 3 c-59
3 -67 5 -63 20 13 42 45 216 56 305 7 55 11 151 8 216 l-5 117 51 0 c142 0
245 155 184 274 l-23 45 34 17 c41 21 47 18 67 -33 9 -21 20 -36 25 -33 19 11
8 -50 -23 -122 -35 -84 -90 -153 -149 -186 -43 -24 -53 -43 -14 -28 53 20 83
40 119 80 40 44 116 190 117 224 0 12 12 -16 27 -61 36 -107 88 -182 151 -217
74 -39 93 -32 30 12 -29 20 -67 58 -84 82 -25 38 -30 55 -30 106 0 49 5 68 28
103 30 45 66 67 93 57 16 -6 15 -8 -4 -29 -37 -39 -54 -93 -42 -135 18 -70
108 -132 189 -132 l26 0 0 -202 c0 -183 3 -216 28 -330 15 -70 27 -132 27
-138 0 -6 -26 -10 -60 -10 l-60 0 0 -40 c0 -31 4 -40 17 -40 69 0 724 121 963
178 l75 17 3 42 c3 36 10 49 53 87 125 113 324 231 539 321 325 136 364 164
630 455 320 350 481 573 683 945 240 441 249 464 213 534 -28 54 -121 93 -141
60 -4 -6 -14 -8 -22 -5 -8 3 -12 2 -9 -3 3 -4 -4 -17 -17 -27 -12 -10 -16 -12
-9 -4 6 8 12 18 12 24 0 5 -6 1 -14 -9 -8 -11 -12 -23 -9 -28 7 -12 -18 -38
-30 -30 -5 3 -7 1 -3 -5 3 -6 -9 -39 -28 -74 -47 -86 -95 -204 -160 -388 -127
-360 -259 -689 -284 -704 -5 -3 -1 18 10 47 52 135 268 912 275 988 16 170
-183 267 -273 131 -24 -35 -40 -86 -104 -322 -54 -202 -154 -509 -191 -586
-62 -130 -232 -242 -454 -298 -61 -15 -155 -42 -210 -59 -94 -29 -104 -34
-162 -93 -45 -44 -74 -85 -103 -145 -46 -96 -49 -88 -16 44 49 193 105 271
306 432 150 120 292 285 321 372 24 74 -11 162 -77 189 -44 18 -113 18 -158
-1 -23 -10 -113 -93 -244 -224 -232 -233 -285 -273 -468 -351 -252 -108 -421
-224 -534 -367 -74 -94 -161 -267 -194 -384 -28 -99 -51 -307 -43 -387 8 -80
-1 -58 -25 59 -29 147 -29 324 1 439 45 171 144 341 268 461 115 112 226 178
464 274 207 84 214 89 454 328 121 121 238 229 260 242 92 53 211 50 287 -8
55 -42 78 -76 92 -131 l12 -45 48 34 c45 31 172 83 182 73 2 -3 -2 -24 -9 -48
l-13 -44 -102 -25 c-93 -24 -134 -43 -120 -56 2 -3 29 -1 58 5 67 13 140 13
140 0 0 -16 -50 -142 -61 -157 -18 -21 -58 -15 -84 12 -27 26 -32 63 -12 84
10 10 7 12 -12 9 -16 -2 -31 -15 -43 -39 l-19 -36 27 -52 c22 -42 33 -53 63
-60 95 -24 89 -24 106 16 28 67 111 352 201 688 42 159 69 221 115 259 54 46
90 60 159 60 83 1 151 -31 197 -92 l32 -43 16 38 c37 88 125 147 220 147 113
-1 180 -62 205 -187 l12 -59 21 19 c12 11 52 39 90 62 37 24 67 46 67 48 0 3
-31 3 -69 -1 l-70 -7 -33 50 c-54 83 -136 131 -224 131 -41 0 -48 5 -116 73
-100 101 -165 132 -273 132 -87 0 -119 -12 -168 -61 -39 -39 -45 -22 -8 25 48
60 94 97 167 132 160 76 362 44 479 -77 39 -39 106 -71 127 -58 4 3 8 1 8 -5
0 -6 7 -8 15 -5 28 11 15 24 -24 24 -46 0 -61 14 -32 29 45 25 140 4 188 -41
12 -11 25 -38 28 -59 8 -48 20 -49 42 -5 30 63 -7 111 -132 174 -62 31 -165
102 -165 114 0 3 15 10 33 13 121 27 199 133 169 233 -16 52 -42 64 -42 19 0
-54 -20 -107 -54 -144 -27 -30 -41 -36 -83 -40 -45 -5 -53 -2 -81 23 -34 33
-46 62 -33 83 8 12 16 8 47 -18 31 -28 42 -32 72 -27 46 7 71 33 79 79 5 31 1
40 -25 67 -42 41 -97 42 -136 1 -20 -21 -41 -30 -76 -35 -81 -11 -211 -88
-188 -112 4 -3 42 8 85 24 l78 30 6 -31 c8 -45 24 -72 60 -100 30 -24 31 -26
18 -55 -7 -17 -17 -28 -22 -25 -5 3 -6 -4 -2 -17 7 -21 6 -21 -17 -7 -12 8
-33 18 -45 21 -18 6 -20 4 -16 -14 3 -11 10 -20 16 -20 6 0 8 -2 5 -5 -3 -3
-40 6 -84 20 -49 16 -102 25 -141 25 -73 0 -200 -37 -256 -76 -42 -28 -60 -25
-32 6 31 34 113 81 176 101 74 23 183 25 262 4 66 -17 127 -20 127 -5 0 28
-146 80 -226 80 l-41 0 -6 188 c-4 103 -7 305 -7 449 l0 263 -29 32 -29 33
-211 3 c-116 2 -211 6 -211 11 0 12 135 159 200 217 34 30 73 60 87 65 30 11
115 -7 240 -52 l92 -34 72 -90 c97 -123 93 -121 146 -82 25 18 96 68 158 112
177 126 274 199 274 209 1 5 -20 37 -45 72 -45 64 -45 64 -67 47 -112 -89
-167 -136 -167 -142 0 -4 5 -12 10 -17 29 -29 -29 -66 -70 -44 -19 10 -30 5
-92 -40 -38 -28 -74 -50 -80 -48 -5 2 23 28 64 58 69 52 73 58 78 100 6 52 27
63 58 29 l20 -21 95 80 95 80 -50 66 -50 65 -27 -17 c-14 -9 -75 -54 -135 -99
-71 -54 -115 -82 -125 -78 -9 4 -37 9 -63 12 -38 5 -48 10 -48 24 0 23 -9 24
-24 3 -7 -8 -32 -18 -56 -20 -76 -9 -88 -13 -124 -44 -34 -30 -34 -30 -40 -8
-3 13 -6 53 -6 89 l0 66 44 31 c62 44 156 158 156 187 0 4 -38 5 -84 4 -110
-5 -138 -23 -149 -99 -10 -72 6 -294 23 -315 7 -9 16 -12 19 -8 3 5 19 17 35
27 24 15 42 18 100 13 39 -3 88 -12 110 -19 l39 -14 -58 -46 -57 -45 -47 14
c-157 48 -233 49 -311 5 -42 -24 -240 -217 -240 -235 0 -4 -10 -21 -21 -36
-19 -26 -27 -29 -78 -29 -121 -1 -122 -1 -152 -31 -27 -28 -29 -34 -29 -109 0
-72 -3 -84 -26 -111 -37 -45 -119 -69 -176 -52 -72 21 -203 184 -262 326 -8
19 -19 35 -23 35 -4 -1 -59 -27 -121 -59 l-113 -58 -10 26 c-6 14 -26 69 -45
121 -19 52 -40 106 -45 120 -9 20 -8 27 6 35 10 5 31 21 48 34 26 22 29 23 24
5 -17 -55 -23 -102 -16 -122 8 -22 10 -22 38 -8 31 17 74 64 95 105 19 38 69
259 61 272 -4 6 -26 19 -50 29 -48 21 -86 66 -103 124 -13 46 -11 52 25 61 74
18 169 103 207 184 l21 46 3 -35 c4 -40 -7 -133 -49 -403 -40 -260 -43 -243
34 -251 64 -8 198 -34 205 -40 2 -2 -4 -45 -12 -95 -18 -102 -20 -150 -7 -135
9 10 51 170 51 197 0 10 7 20 15 23 13 5 264 -42 274 -51 1 -2 -4 -19 -13 -37
l-16 -33 29 32 c23 24 39 32 73 34 36 3 55 14 116 64 82 68 72 43 126 320 49
256 68 366 63 371 -7 7 -187 45 -312 65 -65 11 -121 22 -124 25 -3 2 1 10 7
16 8 8 42 11 102 9 77 -2 95 0 124 18 36 23 52 49 38 63 -5 5 -50 14 -100 20
l-90 12 39 55 c49 68 82 90 148 98 42 5 51 3 51 -9 0 -35 -99 -70 -138 -49
-15 8 -21 7 -26 -4 -7 -19 3 -24 56 -31 56 -7 102 18 135 74 l25 42 -81 0
c-68 0 -84 -3 -101 -20 -27 -27 -25 -20 8 40 l27 50 90 0 c55 0 96 5 106 13
58 45 81 69 73 77 -5 5 -51 10 -102 11 -51 1 -92 5 -92 10 0 4 11 20 24 36 13
15 31 44 41 63 10 19 20 29 22 23 3 -7 9 -13 14 -13 6 0 8 4 4 9 -3 5 -1 12 5
16 11 7 163 35 168 30 9 -8 -15 -38 -45 -56 -23 -15 -57 -23 -104 -27 -90 -6
-89 -22 1 -22 100 0 153 31 166 99 6 30 5 32 -17 27 -13 -3 -57 -10 -98 -16
-41 -6 -78 -13 -82 -16 -15 -9 -10 6 10 34 10 15 30 50 44 77 35 69 106 133
165 147 17 5 22 2 22 -13 0 -32 -61 -89 -127 -121 -36 -16 -62 -32 -59 -35 2
-3 34 5 70 17 47 15 74 32 100 60 59 65 61 120 6 120 -41 0 -83 -23 -140 -76
l-47 -44 -6 41 c-5 41 -21 68 -33 57 -3 -4 -1 -15 5 -26 16 -30 13 -113 -5
-142 -14 -23 -15 -20 -9 55 6 91 -1 113 -33 96 -12 -6 -26 -20 -32 -31 -13
-25 -13 -101 2 -171 11 -52 10 -59 -10 -90 l-22 -34 0 33 c0 47 -38 132 -59
132 -49 0 -56 -90 -15 -172 25 -50 26 -52 9 -87 l-17 -35 -24 60 c-13 32 -24
60 -24 62 0 1 -8 2 -19 2 -47 0 -60 -67 -31 -160 14 -45 19 -81 15 -100 -7
-34 -25 -50 -25 -23 0 26 -47 123 -59 123 -38 0 -66 -132 -50 -235 8 -51 8
-69 -5 -92 l-15 -28 -17 40 c-9 22 -17 61 -18 87 -1 39 -4 48 -18 48 -28 0
-23 -71 8 -141 15 -33 24 -62 21 -65 -3 -3 -70 8 -149 25 -176 38 -186 38
-215 4 l-22 -28 -1 58 0 57 41 0 41 0 -4 56 -3 56 55 22 c312 121 453 537 285
838 -103 184 -316 275 -520 223 -85 -22 -137 -50 -196 -103 -230 -207 -236
-594 -13 -840 56 -62 142 -122 177 -122 18 0 24 -25 8 -35 -6 -3 -5 -22 3 -48
10 -37 16 -42 44 -45 l32 -3 0 -64 c0 -120 -61 -227 -164 -285 -65 -38 -94
-37 -167 1 -51 27 -60 37 -69 70 -12 45 -1 43 -174 29 -115 -10 -120 -9 -142
11 -14 13 -30 19 -39 15 -23 -8 -245 -148 -250 -157 -3 -4 6 -20 19 -36 l24
-28 -28 -56 c-16 -31 -41 -70 -56 -88 -14 -17 -25 -33 -23 -35 2 -1 35 -11 72
-21 68 -18 86 -18 272 0 l50 5 -41 -19 c-83 -39 -270 -144 -307 -173 -41 -33
-40 -44 9 -64 25 -10 34 -21 34 -37 -1 -12 -29 -92 -63 -177 -46 -115 -67
-156 -81 -158 -18 -4 -19 7 -15 339 l4 344 -57 15 -56 15 24 30 c14 17 48 68
76 115 28 46 66 101 85 121 49 53 138 97 245 120 61 13 131 39 206 75 l112 54
119 0 c65 0 132 -3 148 -6 l29 -6 -7 -56 c-8 -59 -7 -68 9 -58 14 9 62 132 62
160 0 55 -77 104 -146 93 -18 -3 -67 -22 -108 -41 -42 -20 -80 -36 -85 -36
-19 0 -41 45 -41 81 0 48 27 80 70 85 52 6 62 12 58 36 -2 18 -11 24 -36 26
-88 9 -162 -130 -117 -218 l15 -28 -78 -40 c-75 -38 -115 -53 -252 -88 -106
-27 -222 -94 -235 -135 -9 -26 -25 -14 -25 18 0 14 -10 76 -21 137 -29 149
-23 215 27 313 33 65 40 74 60 69 26 -7 42 10 25 27 -6 6 -11 23 -11 38 0 21
7 31 30 41 35 15 39 42 14 89 -8 17 -14 32 -12 33 2 2 28 14 58 28 176 80 330
273 374 470 26 114 28 160 12 237 -51 242 -232 412 -460 429 -63 4 -68 3 -64
-14 2 -15 16 -21 63 -26 273 -35 463 -280 425 -550 -13 -94 -24 -126 -73 -221
-69 -134 -193 -240 -297 -254 -30 -4 -54 2 -107 26 -87 41 -167 124 -217 226
-46 94 -46 110 -1 25 39 -72 138 -179 200 -215 22 -13 59 -29 82 -36 39 -11
46 -10 97 15 118 58 238 266 235 410 l-1 51 -14 -59 c-59 -245 -243 -378 -408
-295 -102 51 -191 185 -221 331 -20 100 -19 129 5 223 29 114 78 184 175 250
l40 28 -50 -7 c-71 -9 -161 -56 -222 -116 -211 -211 -183 -574 65 -819 48 -48
63 -67 42 -55 -47 28 -165 150 -210 219 -91 136 -121 334 -72 477 59 172 190
297 361 344 84 24 81 56 -4 37z m1374 -502 c156 -49 265 -171 306 -343 30
-127 9 -276 -57 -401 -33 -63 -123 -163 -168 -187 l-25 -13 25 29 c14 16 28
31 31 34 18 15 79 124 103 182 45 115 57 219 36 328 -12 63 -55 163 -81 186
-26 23 -24 11 7 -44 103 -183 53 -457 -112 -614 -43 -39 -152 -118 -166 -118
-4 0 5 24 21 53 50 89 65 158 66 297 0 134 -20 247 -58 328 -26 56 -100 131
-157 159 -43 21 -43 22 -20 31 14 5 32 12 40 15 8 3 1 6 -16 6 -80 2 -193 -91
-245 -203 -95 -202 -47 -445 124 -632 61 -67 35 -58 -40 14 -224 215 -242 565
-41 778 110 116 278 161 427 115z m-71 -350 c-15 -5 -21 7 -13 26 7 17 8 17
15 -2 4 -11 3 -22 -2 -24z m756 -68 c-5 -10 -8 -53 -9 -95 0 -42 -3 -79 -6
-82 -3 -4 -12 14 -19 40 -11 40 -11 53 4 100 9 30 22 54 28 54 6 0 7 -7 2 -17z
m-2552 -25 c18 -26 23 -46 23 -100 0 -37 2 -68 5 -68 3 1 16 7 30 15 37 21 84
19 106 -6 14 -15 18 -33 16 -72 -2 -40 0 -49 10 -39 14 14 28 16 28 2 0 -11
-42 -34 -80 -44 l-25 -7 25 20 c42 33 16 34 -46 0 -33 -17 -65 -36 -72 -41 -7
-6 -15 -8 -19 -5 -3 4 2 9 11 13 14 5 86 115 86 131 0 3 -16 -15 -36 -41 -34
-44 -145 -136 -165 -136 -20 0 -6 26 41 81 69 79 65 90 -7 19 -21 -20 -24 -21
-15 -5 5 11 19 47 31 80 24 70 8 54 -41 -41 -18 -35 -36 -64 -40 -64 -4 0 -12
19 -18 43 -23 88 -33 117 -41 117 -7 0 -24 -52 -46 -138 l-8 -33 -64 66 c-35
36 -66 64 -68 61 -7 -6 16 -46 52 -91 34 -43 59 -85 50 -85 -13 0 -93 56 -139
99 -34 31 -45 37 -34 20 10 -16 13 -31 8 -39 -9 -15 -16 -11 -74 39 -31 28
-28 19 15 -45 16 -23 25 -45 21 -48 -3 -4 1 -4 9 -1 9 3 21 -1 28 -9 10 -12 8
-14 -11 -9 -13 3 -29 10 -35 16 -7 5 -13 7 -13 3 0 -17 -60 27 -79 57 -40 65
-18 127 43 127 17 0 42 -7 54 -16 22 -15 22 -15 22 30 0 55 26 126 47 126 8 0
44 -29 80 -65 37 -35 67 -64 68 -62 1 1 7 17 15 35 22 55 144 141 202 142 19
0 33 -9 50 -32z m2421 -150 c3 -13 12 -50 21 -83 18 -73 5 -93 -24 -36 -28 56
-39 141 -18 141 9 0 18 -10 21 -22z m-3049 -127 c27 -30 13 -38 -20 -12 -20
16 -35 20 -56 16 -23 -6 -28 -3 -28 13 0 40 62 29 104 -17z m930 27 c22 -31
12 -38 -36 -24 -46 14 -60 32 -31 39 37 10 52 6 67 -15z m-429 -238 c7 -25 6
-26 -64 -28 -53 -1 -71 1 -71 11 0 7 13 51 28 98 16 46 33 102 37 124 8 39 8
38 36 -70 16 -60 31 -121 34 -135z m783 213 l14 -23 -76 0 c-42 0 -76 4 -76 9
0 45 110 55 138 14z m1673 -86 c1 -51 3 -56 8 -27 l7 35 12 -36 c10 -29 10
-42 1 -63 -7 -14 -16 -26 -20 -26 -21 0 -51 165 -33 183 15 15 24 -8 25 -66z
m-2163 -38 c-2 -17 -17 -31 -48 -46 -45 -24 -96 -31 -85 -13 3 6 -1 10 -10 10
-13 0 -95 45 -95 53 0 1 28 3 63 5 34 1 85 9 112 16 56 15 68 10 63 -25z
m-623 10 c44 -4 88 -8 98 -8 30 -1 19 -17 -30 -43 -85 -45 -129 -44 -180 4
-37 34 -25 76 17 61 8 -3 51 -9 95 -14z m3063 -13 c-30 -27 -114 -42 -161 -29
-25 8 -26 10 -13 28 12 18 26 21 108 23 l93 2 -27 -24z m-3344 -89 c8 -13 7
-20 -4 -27 -24 -16 -30 -12 -30 21 0 33 16 36 34 6z m2985 -46 c20 -65 20
-101 0 -101 -11 0 -39 96 -39 137 0 53 16 38 39 -36z m-1891 31 c4 -25 -19
-30 -37 -9 -8 10 -7 17 1 25 17 17 32 10 36 -16z m-155 -64 c90 -2 107 -11 60
-29 -31 -12 -85 -6 -155 17 -54 17 -77 38 -26 23 18 -5 72 -11 121 -11z m2003
-47 c16 -60 13 -104 -6 -85 -10 10 -26 162 -16 153 4 -4 14 -34 22 -68z
m-2681 50 c-15 -14 -128 -41 -173 -41 -23 0 -42 5 -45 13 -3 9 26 15 107 23
61 6 113 12 116 12 2 1 0 -2 -5 -7z m378 -163 c21 -73 37 -141 37 -150 0 -10
-26 -36 -57 -59 -32 -23 -72 -55 -89 -70 l-30 -29 -70 47 c-38 26 -71 48 -73
50 -6 4 102 287 122 316 16 24 25 27 71 27 l52 0 37 -132z m1865 84 l15 -23
-71 3 c-75 3 -95 19 -49 38 38 16 88 7 105 -18z m-288 -30 c13 -10 20 -26 18
-37 -3 -19 -10 -20 -118 -15 l-114 5 59 32 c68 37 122 42 155 15z m-3462 -50
c2 -7 -5 -12 -17 -12 -14 0 -19 5 -14 15 6 17 25 15 31 -3z m4382 -21 l25 -7
-30 -20 c-23 -15 -48 -19 -112 -20 -85 -1 -95 3 -67 27 13 10 17 10 26 -2 7
-11 9 -9 5 9 -5 21 -3 22 61 21 37 -1 78 -4 92 -8z m-4374 -56 c-3 -10 -15
-15 -28 -13 -32 5 -33 26 -1 30 35 4 37 3 29 -17z m2281 -53 c15 -15 39 -36
53 -47 56 -45 90 -95 90 -133 l-1 -37 -27 32 c-15 18 -40 37 -56 43 -55 20
-243 -19 -376 -79 -24 -11 -48 -17 -52 -15 -4 3 -8 -1 -8 -8 0 -7 -9 -3 -22
10 -22 21 -22 22 -3 36 38 29 241 135 308 161 37 15 67 31 67 37 0 12 -22 5
-128 -38 -45 -19 -86 -34 -90 -33 -11 1 190 99 204 99 7 0 25 -12 41 -28z
m-887 -12 c10 -6 2 -7 -25 -3 -49 7 -58 13 -19 13 16 0 36 -5 44 -10z m2690
-36 c200 -35 358 -68 367 -78 5 -5 -1 -43 -68 -418 l-33 -186 -36 5 c-142 20
-579 100 -587 107 -6 5 89 564 102 604 3 7 14 10 27 7 13 -2 115 -21 228 -41z
m-4086 20 c11 -30 -13 -44 -43 -25 -8 5 -11 16 -8 25 8 21 43 21 51 0z m-1744
-16 c24 -13 50 -34 59 -47 13 -21 9 -19 -33 10 -43 31 -55 34 -131 37 -74 4
-90 1 -145 -24 -72 -32 -126 -89 -143 -151 -11 -41 -27 -58 -27 -29 0 44 56
127 111 167 84 60 229 77 309 37z m3142 1 c115 -40 343 -163 333 -180 -12 -18
-69 -9 -154 25 -100 41 -210 61 -273 52 -48 -7 -118 -56 -118 -83 0 -23 -24
-9 -35 21 -7 21 -5 35 10 63 22 41 127 123 156 123 10 0 47 -10 81 -21z
m-1603 -212 c-76 -129 -142 -217 -154 -205 -3 3 30 61 73 129 42 69 95 155
117 193 31 52 41 63 43 47 2 -13 -30 -78 -79 -164z m361 45 c35 -64 82 -148
106 -185 24 -37 44 -70 44 -72 0 -3 -16 -5 -35 -5 -67 0 -132 81 -191 237 -33
87 -36 114 -17 135 8 10 19 15 23 13 5 -3 36 -58 70 -123z m2801 34 c34 -67
69 -177 69 -214 l0 -34 -117 62 c-120 64 -192 109 -193 122 0 4 21 19 48 34
26 15 70 41 97 59 57 37 65 35 96 -29z m284 22 c-8 -37 -60 -173 -99 -260 -24
-55 -28 -58 -61 -58 -32 0 -35 2 -35 31 0 16 4 60 10 97 5 37 11 99 12 137 l3
70 50 6 c28 3 67 7 88 7 38 2 39 2 32 -30z m-891 -23 c25 -25 29 -55 11 -75
-26 -29 -126 -69 -201 -80 -118 -17 -123 -15 -64 25 28 19 74 54 103 78 83 70
120 83 151 52z m-4144 -10 c106 -55 60 -225 -60 -225 -84 0 -146 99 -109 173
31 62 106 85 169 52z m3176 -16 c19 -11 34 -24 34 -28 0 -14 76 -84 105 -98
27 -12 22 -13 -55 -7 -181 14 -254 61 -204 132 20 29 75 29 120 1z m-1391 -33
c90 -38 91 -173 1 -206 -68 -24 -122 -6 -152 52 -17 32 -12 91 9 118 37 48 84
60 142 36z m1871 -20 c55 -55 48 -62 -63 -60 -97 1 -98 2 -95 25 3 34 50 69
91 69 24 0 42 -9 67 -34z m3089 -52 c-102 -95 -105 -95 -105 -34 0 42 5 55 26
75 23 21 37 25 88 25 l61 -1 -70 -65z m-2520 -1 c-31 -49 -58 -73 -82 -73 -34
0 -28 12 21 43 24 15 50 34 56 42 21 25 23 17 5 -12z m912 -15 c-3 -8 -6 -5
-6 6 -1 11 2 17 5 13 3 -3 4 -12 1 -19z m-602 -20 c-10 -45 -31 -84 -49 -91
-11 -4 -8 8 10 46 13 29 24 58 24 65 0 6 5 12 11 12 7 0 8 -12 4 -32z m-772
-47 c21 -5 41 -11 44 -14 5 -5 8 -88 5 -141 -2 -23 -5 -27 -19 -20 -10 4 -182
10 -383 13 l-364 6 -1 66 0 66 150 12 c83 7 159 14 170 15 49 8 364 5 398 -3z
m235 -27 l22 -4 0 -345 0 -345 -85 0 -85 0 0 358 0 359 63 -9 c34 -5 72 -11
85 -14z m-1572 -65 c25 -39 60 -101 76 -137 35 -77 170 -474 163 -480 -2 -3
-9 6 -14 19 -34 90 -154 375 -158 379 -3 3 -3 -7 1 -22 21 -89 -60 16 -100
129 -21 61 -34 183 -19 183 3 0 26 -32 51 -71z m1778 -69 c0 -52 -1 -200 -2
-327 l-2 -233 -75 0 -75 0 0 343 0 344 78 -16 77 -16 -1 -95z m1076 82 c72
-17 75 -19 73 -46 -2 -28 -52 -166 -61 -166 -2 0 -13 11 -24 25 -29 37 -130
103 -212 139 -82 36 -96 44 -96 56 0 25 206 20 320 -8z m-506 9 c7 -10 -84
-29 -174 -36 l-65 -5 45 15 c37 13 115 27 177 34 6 0 14 -3 17 -8z m-3111 -91
c35 -38 47 -73 29 -84 -4 -2 -13 8 -20 23 -7 15 -28 46 -47 68 -19 23 -35 44
-35 47 0 14 38 -15 73 -54z m3207 11 c0 -16 -6 -46 -14 -67 -24 -70 -144 -312
-200 -407 -31 -51 -56 -98 -56 -105 0 -22 -18 -12 -30 18 l-12 29 -18 -22 -18
-22 -13 27 -12 28 -54 -31 -55 -31 27 52 c36 70 115 274 115 295 0 12 15 2 47
-29 26 -26 51 -45 56 -43 5 1 42 66 81 142 105 204 114 217 137 205 12 -7 19
-21 19 -39z m64 37 c17 -18 90 -127 109 -164 9 -18 37 -92 61 -165 25 -74 63
-187 85 -253 38 -110 49 -156 36 -156 -3 0 -30 26 -60 58 -52 54 -54 56 -55
30 0 -15 -4 -30 -10 -33 -5 -3 -10 -21 -10 -38 0 -38 -10 -77 -19 -77 -3 0
-16 62 -29 138 -28 170 -70 315 -89 308 -7 -3 -13 -1 -13 3 0 5 5 11 11 13 7
2 -2 54 -25 150 -20 81 -36 155 -36 166 0 32 21 42 44 20z m-3411 -22 c47 -31
86 -133 57 -151 -5 -3 -10 3 -10 14 0 11 -4 23 -10 26 -6 4 -10 -8 -10 -28 0
-67 -71 -123 -146 -114 -113 12 -160 131 -87 218 15 17 41 38 58 46 36 16 114
11 148 -11z m590 10 c76 -31 116 -122 81 -185 -30 -54 -67 -76 -128 -76 -66 0
-102 23 -128 82 -17 39 -18 51 -8 93 6 27 19 55 29 64 39 36 101 45 154 22z
m-193 -74 c0 -24 -8 -32 -26 -25 -22 8 -17 43 6 43 13 0 20 -7 20 -18z m2360
-6 c0 -8 -4 -18 -10 -21 -5 -3 -10 3 -10 14 0 12 5 21 10 21 6 0 10 -6 10 -14z
m-499 -10 c14 -6 17 -41 23 -252 4 -135 5 -248 2 -251 -10 -11 -640 -3 -650 7
-7 7 3 10 27 10 55 0 49 26 -8 35 -51 7 -51 25 0 25 50 0 53 18 4 22 -56 4
-60 23 -7 34 53 11 52 28 -2 32 -54 4 -51 18 6 27 56 8 54 29 -4 33 -49 4 -57
22 -9 22 17 0 38 4 46 9 23 15 2 31 -40 31 -40 0 -52 13 -23 24 9 3 29 6 45 6
19 0 29 5 29 15 0 11 -11 15 -39 15 -57 0 -60 17 -6 31 60 15 62 41 3 39 -24
-1 -47 -1 -53 0 -5 1 96 23 225 51 204 42 247 48 325 45 50 -2 97 -7 106 -10z
m-713 -305 c-2 -124 -7 -195 -13 -194 -12 4 -19 318 -9 423 l7 75 9 -54 c5
-30 7 -143 6 -250z m2070 275 c3 -12 -1 -17 -10 -14 -7 3 -15 13 -16 22 -3 12
1 17 10 14 7 -3 15 -13 16 -22z m-503 -6 c-3 -5 -11 -10 -16 -10 -6 0 -7 5 -4
10 3 6 11 10 16 10 6 0 7 -4 4 -10z m2335 -23 c0 -21 -63 -113 -67 -99 -4 11
53 112 63 112 2 0 4 -6 4 -13z m-5765 -24 c-9 -36 -52 -93 -71 -93 -22 0 -17
15 21 60 19 23 35 46 35 51 0 5 5 9 11 9 7 0 9 -10 4 -27z m3075 13 c0 -11
-19 -15 -25 -6 -3 5 1 10 9 10 9 0 16 -2 16 -4z m378 -46 c-7 -11 -15 -15 -17
-9 -2 6 3 15 10 20 20 12 21 11 7 -11z m-2774 1 c10 -15 -22 -21 -114 -21 -96
0 -150 8 -150 21 0 12 257 12 264 0z m-584 -107 c0 -8 -9 -14 -20 -14 -19 0
-28 28 -13 43 9 9 33 -12 33 -29z m740 7 c19 -16 31 -33 27 -37 -4 -5 -24 9
-45 29 -44 44 -32 49 18 8z m-14 -68 c-8 -8 -33 10 -53 40 -36 52 -27 56 17 7
22 -24 38 -45 36 -47z m-426 47 c0 -25 -18 -36 -26 -16 -8 21 3 49 16 41 5 -3
10 -15 10 -25z m3230 10 c0 -5 -4 -10 -10 -10 -5 0 -10 5 -10 10 0 6 5 10 10
10 6 0 10 -4 10 -10z m-2576 -35 c-9 -22 -44 -19 -44 3 0 26 10 33 31 21 10
-5 16 -16 13 -24z m-450 15 c14 -5 26 -15 26 -21 0 -19 -31 -49 -51 -49 -20 0
-35 39 -25 65 6 18 15 19 50 5z m-138 -75 c18 -44 18 -69 -2 -85 -13 -12 -14
-8 -8 39 6 48 5 53 -15 58 -11 3 -18 9 -15 14 11 18 25 8 40 -26z m479 -24
c22 -10 52 -24 68 -30 43 -17 32 -29 -18 -20 -58 11 -72 19 -120 70 l-40 42
35 -21 c19 -12 53 -30 75 -41z m-616 4 c0 -5 -6 -1 -14 9 -8 10 -11 24 -8 29
6 10 21 -16 22 -38z m414 35 c-26 -10 -38 -48 -29 -87 6 -27 6 -27 -9 -9 -8
11 -15 27 -15 37 0 24 38 69 58 68 12 0 11 -3 -5 -9z m-543 -15 c0 -19 -47
-65 -66 -65 -21 0 -17 31 8 57 25 26 58 31 58 8z m210 -9 c0 -22 -2 -23 -25
-13 -23 11 -23 12 -5 15 11 2 20 8 20 13 0 5 2 9 5 9 3 0 5 -11 5 -24z m400 4
c24 -15 7 -19 -20 -5 -15 8 -19 14 -10 14 8 1 22 -3 30 -9z m2772 -20 c36 -22
100 -26 144 -10 15 6 29 9 31 6 17 -16 63 -416 63 -548 l0 -88 -55 0 -55 0 0
101 c0 125 -13 172 -63 222 -51 51 -92 67 -169 67 l-64 0 65 135 c36 74 66
135 68 135 1 0 17 -9 35 -20z m-3664 3 l33 -5 -5 -252 c-3 -138 -9 -294 -14
-346 l-8 -95 -2 88 c-1 48 -5 87 -9 87 -5 0 -27 -10 -50 -22 -39 -21 -45 -21
-85 -9 -57 18 -256 27 -271 12 -20 -20 -52 -12 -80 20 -68 78 -66 71 -73 280
-5 183 -8 209 -18 198 -3 -3 -8 -191 -11 -419 -3 -228 -8 -416 -11 -419 -2 -2
-4 88 -4 200 0 114 -5 211 -10 219 -6 10 -10 -58 -10 -202 0 -161 3 -219 12
-224 7 -5 143 -9 303 -11 159 -1 301 -3 315 -3 24 0 25 -3 22 -40 -3 -24 -11
-44 -21 -49 -9 -5 -61 -12 -116 -15 -55 -4 -113 -9 -130 -12 -27 -4 -28 -4
-12 9 23 19 22 52 -3 77 -32 32 -61 24 -79 -23 -6 -15 -8 -34 -5 -42 5 -12 -3
-15 -42 -16 -27 -1 -89 -3 -137 -4 -139 -5 -127 -56 -127 524 l0 490 38 4 c59
6 573 7 610 0z m969 -22 c10 -15 9 -22 -5 -34 -16 -14 -17 -13 -18 19 -1 38 6
43 23 15z m-577 -21 c0 -3 -10 -11 -21 -18 -28 -18 -45 -2 -30 27 10 18 14 19
31 8 11 -6 20 -14 20 -17z m450 10 c-6 -11 -15 -20 -21 -20 -6 0 -6 7 1 20 6
11 15 20 21 20 6 0 6 -7 -1 -20z m494 -39 c32 -27 64 -58 72 -70 14 -19 13
-21 -1 -21 -42 0 -172 91 -159 112 3 5 0 7 -7 6 -6 -2 -14 3 -16 10 -3 8 5 12
24 12 20 0 47 -15 87 -49z m-884 29 c13 -8 12 -10 -3 -10 -12 0 -17 -6 -15
-17 2 -12 13 -18 31 -18 15 1 27 -3 27 -8 0 -4 -17 -7 -38 -6 -32 2 -38 6 -36
23 1 12 3 27 3 34 1 14 11 15 31 2z m54 -15 c11 -16 12 -23 3 -20 -16 7 -40
45 -28 45 5 0 16 -11 25 -25z m379 18 c-7 -2 -19 -2 -25 0 -7 3 -2 5 12 5 14
0 19 -2 13 -5z m24 -15 c-3 -8 -6 -5 -6 6 -1 11 2 17 5 13 3 -3 4 -12 1 -19z
m-27 -12 c0 -9 -30 -14 -35 -6 -4 6 3 10 14 10 12 0 21 -2 21 -4z m3472 -58
c19 -35 51 -89 71 -120 21 -32 36 -58 33 -58 -2 0 -36 44 -76 98 l-73 98 -80
-48 c-44 -26 -84 -48 -89 -48 -4 0 -8 9 -8 20 0 11 4 20 10 20 5 0 47 22 92
50 46 27 84 49 85 50 1 0 17 -28 35 -62z m-3465 17 c-11 -8 -26 -11 -35 -7
-15 5 -14 7 3 10 11 2 24 8 29 13 5 5 12 6 15 3 3 -3 -2 -12 -12 -19z m4626
-45 c14 -11 29 -34 32 -52 9 -41 -4 -240 -16 -232 -5 3 -9 56 -9 119 0 106 -1
115 -22 129 -19 14 -65 16 -299 16 -220 0 -279 -3 -288 -14 -6 -7 -14 -55 -18
-107 l-7 -94 -9 65 c-10 81 -1 146 24 171 18 18 36 19 303 19 269 0 285 -1
309 -20z m-4431 -21 c68 -18 65 23 71 -874 l5 -811 32 -52 c35 -58 88 -103
140 -121 24 -8 144 -12 397 -12 l363 1 -6 -28 c-30 -139 -66 -215 -128 -270
-45 -40 -116 -76 -125 -65 -4 4 -26 60 -49 124 -23 65 -50 135 -59 158 l-18
41 -50 -131 c-54 -140 -52 -139 -117 -114 -27 11 -23 -20 12 -82 23 -41 30
-65 30 -109 l0 -56 54 6 55 7 6 -33 c4 -18 3 -66 -2 -106 l-8 -73 -124 223
c-228 410 -315 558 -328 558 -7 0 -16 -12 -19 -26 -4 -14 -64 -113 -135 -220
-71 -107 -129 -199 -129 -204 0 -18 -16 -11 -56 24 -33 28 -37 36 -26 49 11
13 10 17 -10 28 -30 15 -66 46 -156 130 -41 38 -87 77 -103 86 -37 22 -37 29
4 48 49 23 154 129 181 183 25 50 46 131 47 185 0 27 2 29 9 12 7 -16 9 -11 9
21 1 56 -34 189 -63 238 -35 60 -127 143 -193 174 -54 25 -68 27 -190 27 -130
0 -132 0 -119 20 12 18 24 20 117 19 173 -1 278 -45 365 -152 87 -107 119
-209 111 -352 -8 -149 -79 -279 -191 -354 -31 -20 -56 -40 -56 -43 0 -3 37 -3
83 0 78 5 203 -4 257 -19 22 -6 19 -1 -19 39 -37 39 -42 47 -28 53 22 8 59 1
119 -22 45 -18 49 -18 75 -2 64 38 77 117 29 168 -24 25 -25 28 -28 257 -3
218 -4 233 -24 260 -16 22 -19 34 -12 46 5 10 12 48 15 86 5 65 4 70 -18 84
-13 9 -67 23 -119 32 -103 17 -150 32 -150 47 0 6 54 7 150 3 l150 -8 0 412
c0 265 -4 419 -10 432 -10 18 -26 19 -443 19 -238 0 -442 3 -454 6 -24 7 -31
30 -11 36 28 10 855 7 890 -3z m3970 -60 c-2 -16 -8 -29 -13 -29 -5 0 -9 -9
-9 -19 0 -11 -4 -23 -10 -26 -6 -3 -10 5 -10 19 0 14 5 28 10 31 6 3 8 16 4
28 -4 17 0 23 14 24 15 1 18 -4 14 -28z m-62 17 c0 -2 -7 -7 -16 -10 -8 -3
-12 -2 -9 4 6 10 25 14 25 6z m135 -6 c3 -5 1 -10 -4 -10 -6 0 -11 5 -11 10 0
6 2 10 4 10 3 0 8 -4 11 -10z m-1681 -6 c9 -3 16 -10 16 -15 0 -5 -464 -10
-1052 -11 -1172 -3 -1090 2 -1167 -71 -32 -31 -33 -31 -26 -7 13 45 57 80 125
101 29 9 2081 12 2104 3z m1777 -47 c-8 -8 -11 -5 -11 9 0 27 14 41 18 19 2
-9 -1 -22 -7 -28z m-242 -144 l-2 -178 34 -1 c19 -1 47 -6 63 -13 25 -10 27
-10 17 3 -7 8 -10 20 -7 25 4 6 -6 17 -22 25 -30 16 -46 41 -36 57 9 15 32 10
46 -10 9 -12 22 -17 38 -15 65 11 114 22 101 23 -9 1 -12 12 -9 36 3 23 -1 36
-10 40 -11 4 -9 11 7 34 12 16 21 33 21 38 0 4 4 14 8 21 11 16 96 -27 100
-52 6 -31 -26 -55 -64 -49 -27 5 -34 2 -34 -11 0 -16 67 -86 82 -86 5 0 35 9
69 21 65 23 87 18 51 -11 -12 -10 -29 -31 -37 -47 -10 -18 -15 -22 -15 -11 0
12 -6 16 -22 13 -12 -3 -26 1 -30 8 -12 18 -9 -4 5 -45 l13 -38 23 21 c17 16
30 20 57 15 l34 -7 0 122 c0 67 3 119 8 115 4 -4 7 -102 7 -216 0 -208 0 -209
-20 -191 -21 19 -59 35 -85 36 -10 0 -15 10 -14 33 0 40 -23 43 -54 7 -17 -20
-31 -25 -67 -25 -29 0 -45 -4 -46 -12 0 -9 -2 -10 -5 -1 -6 14 -74 87 -74 79
0 -4 11 -24 25 -46 14 -22 25 -53 25 -69 0 -16 7 -34 15 -41 12 -10 15 -9 15
8 0 39 11 52 46 52 23 0 37 -6 44 -19 16 -31 12 -41 -20 -52 -28 -10 -30 -15
-31 -62 -1 -31 -4 -39 -6 -22 -9 70 -11 75 -48 75 -19 0 -40 6 -47 14 -11 11
-19 8 -50 -17 -48 -38 -60 -29 -21 16 42 48 57 90 45 124 l-10 28 -10 -27
c-12 -29 -56 -48 -74 -30 -13 13 -7 54 10 60 7 2 10 -2 6 -12 -4 -10 -1 -16 8
-16 23 0 35 19 30 46 -3 18 -11 24 -31 24 -14 0 -33 -4 -41 -10 -9 -6 -17 -5
-22 3 -9 15 -11 381 -1 390 3 4 8 7 10 7 3 0 3 -80 2 -177z m151 142 c0 -19
-4 -35 -8 -35 -4 0 -6 16 -4 35 2 19 6 35 8 35 2 0 4 -16 4 -35z m-4228 15
l78 0 0 -46 c0 -41 2 -45 20 -40 11 3 29 9 40 12 23 6 26 -11 8 -51 -10 -23
-10 -28 5 -36 21 -12 25 -118 5 -120 -10 0 -10 -2 0 -6 8 -3 12 -33 12 -100
l0 -96 -59 7 c-77 9 -630 9 -738 0 l-83 -7 0 102 c0 72 3 101 12 101 9 0 9 3
0 12 -18 18 -16 108 3 108 19 0 19 19 0 44 -21 28 -19 50 3 41 9 -3 29 -9 45
-12 26 -5 27 -4 27 40 l0 46 138 4 c75 2 197 2 271 1 74 -2 169 -4 213 -4z
m3154 -21 c28 -29 28 -31 10 -44 -16 -12 -18 -24 -14 -87 6 -89 38 -169 84
-206 l33 -27 -116 3 -116 3 5 125 c5 118 6 126 36 175 18 27 32 59 32 70 0 27
12 24 46 -12z m1034 -4 c0 -14 -4 -25 -10 -25 -11 0 -14 33 -3 43 11 11 13 8
13 -18z m-33 -7 c-3 -8 -6 -5 -6 6 -1 11 2 17 5 13 3 -3 4 -12 1 -19z m-712
-11 c80 -44 107 -152 60 -234 -80 -136 -285 -94 -311 64 -21 134 131 237 251
170z m-695 -22 c19 -12 48 -40 65 -64 l30 -43 0 -701 0 -702 -22 -41 c-29 -55
-71 -88 -135 -110 -48 -15 -85 -16 -408 -10 -414 8 -520 18 -306 29 77 4 257
7 400 7 232 0 265 2 301 19 68 31 105 86 105 154 -1 31 -2 30 -28 -23 -15 -30
-40 -63 -55 -75 -28 -20 -36 -20 -1122 -20 l-1094 0 -32 30 c-17 17 -39 46
-47 65 l-16 35 -4 -29 c-5 -38 14 -81 49 -110 34 -29 96 -43 239 -54 l105 -8
-88 -13 c-182 -27 -297 12 -351 121 l-26 52 0 684 c0 615 2 687 17 719 18 40
68 82 115 100 25 9 307 11 1153 10 1109 -2 1120 -2 1155 -22z m-4451 -19 c17
-18 22 -33 19 -66 -6 -83 -86 -106 -129 -37 -48 79 48 169 110 103z m5607 -73
c-5 -12 -10 -13 -18 -5 -8 8 -8 15 3 28 15 18 25 4 15 -23z m352 -25 c4 -20
-15 -68 -28 -68 -5 0 -10 6 -10 14 0 8 -12 29 -26 46 l-27 31 44 -4 c29 -2 45
-9 47 -19z m212 8 c0 -20 -39 -66 -56 -66 -29 0 -28 32 2 57 33 26 54 30 54 9z
m-661 -41 c34 -16 75 -44 92 -63 34 -38 31 -57 -4 -24 -46 43 -203 102 -274
102 -18 0 -33 5 -33 11 0 22 152 4 219 -26z m-4928 -130 c10 -4 28 -3 39 0 20
6 28 -9 10 -20 -5 -3 -10 -17 -10 -31 0 -22 -3 -21 -46 22 -34 35 -42 49 -32
55 8 5 14 3 16 -6 2 -8 12 -17 23 -20z m-161 -20 c-34 -35 -49 -33 -50 8 0 12
8 17 29 17 17 0 33 5 36 11 4 6 10 8 13 5 3 -4 -10 -22 -28 -41z m5130 20 c15
-8 32 -21 39 -29 10 -12 2 -11 -34 5 -40 18 -62 21 -127 17 -84 -5 -92 4 -18
20 51 12 102 7 140 -13z m-5084 -113 c-8 -11 -12 -11 -23 4 -7 10 -13 27 -13
37 0 19 2 18 23 -4 17 -17 20 -28 13 -37z m87 23 c-18 -25 -34 -31 -47 -18 -8
8 33 42 52 43 9 0 8 -7 -5 -25z m4955 -227 c2 -235 2 -237 -19 -249 -15 -8
-68 -10 -168 -6 -174 5 -224 20 -291 87 -61 61 -74 104 -77 273 l-2 137 277
-2 277 -3 3 -237z m112 171 c6 -10 10 -119 10 -243 0 -213 1 -227 22 -263 28
-50 28 -49 37 -35 8 13 114 18 156 8 11 -2 23 -5 27 -5 19 -2 95 -82 134 -142
37 -56 44 -74 44 -116 0 -47 -2 -51 -45 -81 -41 -29 -71 -67 -117 -151 -20
-36 -36 -39 -69 -12 l-24 19 58 58 c57 55 77 88 77 122 -1 12 -12 4 -35 -23
-19 -22 -35 -36 -35 -32 0 4 11 20 25 35 14 15 28 37 31 50 4 13 14 22 25 22
31 0 25 63 -8 106 -16 18 -34 34 -40 34 -7 0 -13 7 -13 16 0 9 -5 12 -12 8 -8
-5 -7 0 2 11 16 20 16 20 -37 -2 -8 -3 -13 3 -14 13 0 11 -3 14 -6 7 -2 -7 -9
-13 -14 -13 -4 0 -6 7 -2 17 5 14 1 15 -33 10 -21 -4 -44 -14 -50 -22 -8 -10
-13 -12 -16 -5 -5 15 -58 -5 -58 -21 0 -6 7 -9 15 -5 8 3 15 1 15 -4 0 -5 -10
-10 -22 -12 -12 -2 -22 -11 -24 -22 -1 -10 -7 -23 -13 -29 -7 -7 -8 -3 -4 12
3 12 1 21 -6 21 -11 0 -13 -9 -15 -75 -1 -34 -4 -39 -21 -37 -17 3 -16 0 8
-23 15 -15 27 -32 27 -37 0 -5 5 -6 10 -3 6 4 7 12 4 18 -4 7 -3 9 1 4 5 -4 9
-17 10 -28 1 -15 -3 -19 -16 -16 -11 3 -16 -1 -14 -12 1 -10 11 -16 26 -16 14
0 23 -5 22 -12 -2 -7 6 -27 17 -45 15 -24 20 -28 20 -14 0 10 -8 25 -17 32
-10 7 -15 16 -10 20 4 4 21 -2 37 -14 16 -12 38 -22 49 -22 11 0 23 -4 26 -10
9 -15 32 -12 51 7 12 12 16 13 13 4 -3 -8 -14 -19 -25 -25 -10 -6 -22 -15 -25
-19 -3 -4 -33 -7 -66 -6 -74 2 -140 -26 -166 -71 -10 -17 -22 -58 -26 -93 l-7
-62 -7 60 c-4 33 -8 188 -9 345 l-3 285 25 33 25 34 0 267 0 268 33 -25 c18
-14 37 -33 42 -43z m720 -86 c0 -87 3 -168 6 -180 5 -17 2 -23 -10 -23 -14 0
-16 21 -16 180 0 113 4 180 10 180 6 0 10 -59 10 -157z m-162 18 c18 -24 31
-46 29 -48 -8 -8 -37 10 -42 25 -2 10 -18 26 -35 37 -39 26 -47 51 -24 76 17
19 18 19 29 -13 6 -18 25 -53 43 -77z m-486 -126 c3 -127 5 -140 21 -137 9 2
17 -1 17 -6 0 -9 151 -8 263 3 37 3 98 3 137 -1 l70 -7 -64 -48 c-36 -27 -67
-57 -71 -68 -5 -17 -20 -19 -165 -26 -176 -8 -200 -2 -220 51 -12 30 -13 334
-2 414 l7 55 2 -45 c2 -25 4 -108 5 -185z m-1022 200 c0 -10 -10 -15 -30 -15
-20 0 -30 5 -30 15 0 10 10 15 30 15 20 0 30 -5 30 -15z m89 6 c9 -6 2 -10
-23 -13 -25 -3 -36 0 -36 9 0 15 38 17 59 4z m-4336 -11 c17 0 17 -2 -3 -30
-32 -46 -60 -36 -60 22 0 16 5 19 23 14 12 -3 30 -6 40 -6z m215 -14 c6 -27
-14 -42 -32 -26 -9 7 -23 10 -31 6 -9 -3 -18 1 -22 10 -8 22 4 29 32 16 21
-10 25 -9 25 4 0 21 24 12 28 -10z m-760 -30 c26 -13 43 -37 55 -78 9 -27 -12
-87 -37 -103 -12 -8 -36 -18 -54 -21 -27 -6 -37 -1 -67 29 -30 30 -35 42 -35
82 0 38 5 52 29 76 33 32 67 37 109 15z m5911 -3 c0 -10 -4 -27 -9 -38 -7 -16
-9 -13 -9 18 -1 20 4 37 9 37 6 0 10 -8 9 -17z m-5231 -44 c-27 -17 -37 -8
-15 14 16 16 23 18 25 8 2 -7 -2 -17 -10 -22z m4180 34 c-10 -2 -26 -2 -35 0
-10 3 -2 5 17 5 19 0 27 -2 18 -5z m-2878 -86 l0 -84 -258 -7 c-142 -3 -335
-3 -429 0 l-172 7 -3 84 -3 83 433 0 432 0 0 -83z m-1396 58 c3 -8 1 -15 -3
-15 -5 0 -11 7 -15 15 -3 8 -1 15 3 15 5 0 11 -7 15 -15z m4342 -10 c0 -14 -4
-25 -8 -25 -10 0 -10 13 -2 34 9 23 12 20 10 -9z m1464 -85 c0 -67 -4 -110
-10 -110 -11 0 -14 202 -3 213 12 13 13 7 13 -103z m-1610 85 c0 -8 -7 -15
-15 -15 -8 0 -15 7 -15 15 0 8 7 15 15 15 8 0 15 -7 15 -15z m217 -7 c-3 -8
-6 -5 -6 6 -1 11 2 17 5 13 3 -3 4 -12 1 -19z m-127 -8 c0 -5 -11 -10 -25 -10
-14 0 -25 5 -25 10 0 6 11 10 25 10 14 0 25 -4 25 -10z m2070 -11 c9 -16 8
-26 -5 -45 -8 -13 -21 -24 -27 -24 -18 0 -48 31 -48 50 0 40 61 55 80 19z
m-1963 5 c-3 -3 -12 -4 -19 -1 -8 3 -5 6 6 6 11 1 17 -2 13 -5z m1083 -29 c0
-8 -4 -15 -10 -15 -5 0 -10 7 -10 15 0 8 5 15 10 15 6 0 10 -7 10 -15z m-1030
-62 c17 -77 44 -129 93 -180 l41 -43 -222 0 -222 0 0 29 0 29 93 8 c104 8 90
21 -25 23 -61 1 -68 3 -68 21 0 18 7 20 78 20 85 0 124 13 72 24 -18 3 -59 6
-91 6 -52 0 -59 2 -59 20 0 16 7 20 38 20 64 0 142 12 136 21 -3 5 -43 9 -90
9 -77 0 -84 2 -84 20 0 18 8 20 138 23 75 1 142 4 148 5 6 1 17 -24 24 -55z
m1185 47 c3 -5 1 -10 -4 -10 -6 0 -11 5 -11 10 0 6 2 10 4 10 3 0 8 -4 11 -10z
m-68 -87 c-3 -3 -11 -2 -17 2 -8 5 -7 11 2 22 12 15 13 14 16 -1 2 -10 1 -20
-1 -23z m-5927 9 c0 -10 14 -31 31 -48 l30 -29 164 -5 c226 -7 229 -17 13 -40
-54 -5 -138 -10 -187 -10 l-90 0 -38 48 c-21 26 -45 52 -53 58 -12 10 -12 14
-1 28 10 11 30 16 72 16 50 0 59 -3 59 -18z m1467 -90 c26 -36 73 -127 73
-144 0 -6 -7 -3 -15 8 -14 18 -14 18 -15 1 0 -32 -20 -14 -53 48 l-32 60 -201
3 -200 2 -54 -80 c-52 -76 -70 -94 -70 -69 0 6 24 53 53 105 l52 94 221 0 220
0 21 -28z m-239 -89 c3 -10 -22 -13 -104 -13 -112 0 -131 10 -41 21 76 10 140
6 145 -8z m-388 -62 c0 -28 -3 -29 -63 -40 -88 -15 -87 -15 -87 23 0 34 1 35
48 39 109 8 102 10 102 -22z m856 9 c24 -10 31 -34 15 -58 -7 -11 -16 -11 -57
1 -38 11 -50 19 -55 40 -4 14 -4 29 -1 32 7 7 61 -1 98 -15z m4890 -20 c29
-22 59 -40 66 -41 10 0 10 -2 1 -6 -11 -4 -133 73 -133 83 0 10 18 0 66 -36z
m-1246 -10 c19 -19 20 -33 20 -435 0 -232 -4 -415 -9 -415 -5 0 -26 7 -47 16
-42 18 -146 23 -214 11 l-45 -8 58 32 c119 66 180 144 207 264 33 147 -45 318
-182 399 -24 14 -75 31 -114 37 -63 11 -76 10 -140 -9 -55 -17 -82 -33 -130
-76 -144 -130 -165 -338 -50 -495 42 -57 93 -94 167 -121 l54 -20 -85 6 c-77
5 -89 4 -134 -19 -47 -25 -50 -25 -71 -9 -32 24 -35 58 -35 461 0 307 2 360
16 379 l15 22 350 0 c336 0 350 -1 369 -20z m1307 14 c-3 -3 -12 -4 -19 -1 -8
3 -5 6 6 6 11 1 17 -2 13 -5z m-2122 -24 c16 -18 18 -52 21 -403 l4 -384 -51
-6 c-67 -8 -126 -43 -164 -95 -27 -39 -30 -53 -33 -133 -2 -49 -8 -89 -14 -89
-21 0 -98 62 -98 80 0 10 9 47 20 82 11 34 20 64 20 66 0 1 -6 2 -14 2 -17 0
-57 -82 -64 -132 -2 -21 -8 -38 -13 -38 -12 0 -37 51 -74 148 l-31 82 -17 -52
c-9 -29 -27 -71 -40 -92 -18 -33 -31 -45 -66 -63 -1 -1 9 -17 24 -36 l26 -35
-23 -8 c-12 -4 -39 -18 -59 -31 l-36 -24 -64 36 c-111 63 -160 127 -190 245
-22 88 -43 93 -37 9 5 -80 40 -157 100 -224 l45 -49 -91 -19 c-50 -10 -143
-35 -206 -56 -111 -37 -119 -39 -231 -36 -105 3 -130 7 -241 44 -102 33 -220
61 -262 61 -4 0 7 17 26 38 71 79 107 159 117 262 l6 65 90 0 90 0 -3 -55 c-1
-30 -10 -95 -19 -143 -18 -95 -15 -106 31 -107 14 0 16 3 8 13 -8 9 -7 30 3
72 8 33 17 95 21 138 l7 77 86 0 c47 0 109 3 136 6 l51 6 14 -123 c8 -68 14
-140 13 -160 -1 -36 -1 -36 28 -26 33 13 35 25 15 106 -8 31 -16 88 -18 126
l-3 70 465 0 465 1 45 23 c58 30 97 66 123 116 21 38 22 54 25 353 2 171 7
312 11 312 4 0 16 -9 26 -20z m2216 -5 l34 -16 -35 7 c-19 3 -39 10 -44 15
-15 14 8 11 45 -6z m-5504 -62 c157 -79 243 -248 216 -424 -22 -136 -101 -244
-223 -303 -59 -28 -74 -31 -165 -31 -93 0 -105 2 -167 33 -230 113 -294 401
-136 607 107 139 326 194 475 118z m394 6 c86 -23 124 -54 135 -108 6 -30 5
-33 -12 -28 -10 3 -63 20 -117 36 -55 16 -102 33 -105 37 -7 6 40 1 98 -11 14
-3 -2 5 -35 17 -51 20 -60 27 -63 51 -4 33 -1 33 99 6z m-807 -10 c-24 -27
-48 -39 -104 -55 l-45 -12 43 -1 c62 -1 43 -17 -35 -30 -38 -7 -75 -14 -84
-17 -22 -6 -28 13 -17 54 7 25 18 37 43 48 39 16 121 31 179 33 39 1 39 1 20
-20z m4271 -74 c66 -29 122 -86 154 -154 20 -45 26 -71 26 -132 0 -47 -6 -87
-15 -105 -35 -70 -76 -118 -129 -152 -54 -36 -59 -37 -146 -37 -72 1 -100 5
-140 23 -223 101 -243 403 -34 537 91 59 185 65 284 20z m650 6 c17 -9 38 -32
47 -50 9 -19 23 -38 30 -43 9 -6 10 -10 2 -15 -6 -5 -14 -20 -17 -34 -4 -15
-25 -43 -47 -63 -34 -30 -47 -36 -86 -36 -82 0 -154 60 -154 129 0 44 19 73
73 112 36 26 47 29 82 24 22 -4 54 -15 70 -24z m549 -5 c50 -29 126 -109 126
-132 0 -14 -2 -15 -17 -3 -11 10 -14 10 -9 2 11 -20 -28 -16 -55 6 -88 68
-188 85 -283 45 -39 -15 -4 18 38 37 74 34 154 21 233 -37 l48 -35 -52 50
c-41 39 -64 52 -105 61 -59 13 -126 2 -148 -25 -7 -8 -17 -15 -23 -15 -16 0
25 40 63 61 47 26 125 19 184 -15z m-6125 -2 c41 -34 58 -91 40 -130 -17 -36
-104 -94 -140 -94 -18 0 -38 13 -63 40 -39 43 -46 80 -25 139 24 69 129 95
188 45z m6067 -105 c70 -18 63 -30 -13 -23 -62 6 -127 -2 -192 -22 -39 -12
-15 15 33 37 47 21 107 24 172 8z m-6828 -5 c31 -6 27 -21 -8 -29 -30 -6 -60
7 -60 26 0 8 31 10 68 3z m2332 -14 c0 -13 -5 -18 -15 -14 -8 4 -15 12 -15 20
0 8 7 14 15 14 8 0 15 -9 15 -20z m3770 -15 c0 -8 -4 -15 -10 -15 -5 0 -10 7
-10 15 0 8 5 15 10 15 6 0 10 -7 10 -15z m-3987 -70 c4 -31 3 -40 -2 -25 -12
39 -21 107 -12 90 5 -8 11 -37 14 -65z m142 65 c9 -15 -4 -50 -20 -50 -20 0
-30 40 -14 51 18 11 26 11 34 -1z m-2215 -54 c0 -17 -51 -30 -79 -21 -10 3
-22 12 -25 20 -4 12 5 15 49 15 41 0 55 -4 55 -14z m6306 -82 c-4 -9 -9 -15
-11 -12 -3 3 -3 13 1 22 4 9 9 15 11 12 3 -3 3 -13 -1 -22z m-4006 7 c0 -12
-20 -25 -27 -18 -7 7 6 27 18 27 5 0 9 -4 9 -9z m-1415 -102 c20 -22 19 -22
-15 2 -19 13 -42 23 -50 21 -13 -2 -13 -1 -1 7 18 11 38 2 66 -30z m1379 10
c37 -29 34 -61 -11 -94 l-38 -28 28 29 c15 17 27 35 27 41 0 6 -17 19 -38 30
-39 19 -46 43 -13 43 10 0 30 -9 45 -21z m4359 11 c-46 -11 -77 -33 -103 -74
-26 -44 -32 -46 -19 -6 17 47 73 90 117 89 l37 -1 -32 -8z m-6254 -29 c9 -16
8 -18 -9 -14 -11 3 -20 12 -20 19 0 20 18 17 29 -5z m6721 10 c0 -5 -7 -11
-14 -14 -10 -4 -13 -1 -9 9 6 15 23 19 23 5z m-887 -32 c12 -7 39 -27 60 -46
37 -33 39 -34 54 -16 13 15 14 16 9 1 -3 -9 -10 -36 -16 -59 -6 -23 -16 -53
-21 -66 l-9 -24 -27 32 c-52 62 -151 86 -214 53 -17 -8 -33 -13 -36 -10 -14
14 11 82 42 113 29 29 39 33 85 33 28 0 61 -5 73 -11z m-3984 -8 c7 -5 12 -14
9 -21 -2 -7 -10 -4 -22 9 -19 21 -12 28 13 12z m4851 -52 c0 -12 -27 -11 -35
1 -11 17 5 32 21 19 8 -6 14 -15 14 -20z m-6666 5 c4 -9 4 -19 2 -21 -8 -8
-26 8 -26 23 0 19 16 18 24 -2z m1743 -36 c-3 -8 -6 -5 -6 6 -1 11 2 17 5 13
3 -3 4 -12 1 -19z m216 -8 c24 -40 14 -68 -30 -86 -32 -14 -37 -14 -54 1 -10
10 -21 31 -25 48 -14 63 76 94 109 37z m-163 -15 c-7 -8 -17 -15 -22 -15 -11
0 14 29 26 30 5 0 3 -7 -4 -15z m4830 -15 c0 -11 -7 -20 -15 -20 -15 0 -21 21
-8 33 12 13 23 7 23 -13z m-6587 -10 c3 -13 0 -20 -9 -20 -8 0 -14 2 -14 4 0
2 -3 11 -6 20 -4 10 -1 16 9 16 8 0 17 -9 20 -20z m5710 -24 c58 -25 82 -60
82 -123 l0 -56 -70 -38 c-103 -57 -153 -50 -189 25 -34 72 -8 149 64 187 41
23 69 24 113 5z m840 -51 c8 -18 -11 -31 -25 -17 -11 11 -3 32 12 32 4 0 10
-7 13 -15z m-6519 -11 c4 -9 4 -19 2 -21 -8 -8 -26 8 -26 23 0 19 16 18 24 -2z
m2032 -57 c25 -52 149 -276 179 -322 18 -27 42 -72 53 -98 12 -27 34 -67 50
-91 35 -52 125 -236 118 -243 -7 -7 -38 5 -66 27 -24 19 -24 20 -3 20 28 0 34
19 15 48 l-15 23 -24 -25 c-23 -25 -25 -26 -61 -10 -20 9 -81 32 -136 52 -81
29 -96 37 -83 47 10 7 14 20 10 33 -4 16 -1 22 10 22 9 0 19 -4 22 -10 3 -5
11 -10 16 -10 6 0 7 5 3 12 -5 7 -3 8 6 3 7 -4 16 -2 21 6 13 21 11 35 -3 21
-7 -7 -40 -12 -79 -12 -57 0 -70 -3 -82 -21 -15 -20 -16 -20 -48 -4 -19 10
-67 43 -107 73 -63 48 -72 59 -67 79 3 13 45 83 94 156 48 73 103 158 122 189
19 32 36 58 39 58 3 0 10 -10 16 -23z m4464 -18 c0 -10 -4 -19 -10 -19 -5 0
-10 12 -10 26 0 14 4 23 10 19 6 -3 10 -15 10 -26z m-6470 -4 c0 -8 -4 -15
-10 -15 -5 0 -10 7 -10 15 0 8 5 15 10 15 6 0 10 -7 10 -15z m4635 -11 c18 -8
43 -26 56 -40 25 -27 39 -31 39 -11 0 45 102 72 158 43 55 -28 78 -98 44 -129
-17 -15 -20 -14 -46 13 -30 33 -77 40 -108 16 -27 -20 -22 -25 16 -19 26 4 39
0 55 -16 38 -38 21 -71 -69 -131 -19 -13 -55 -42 -79 -64 -26 -25 -41 -34 -37
-23 14 40 -69 166 -110 168 -17 0 -17 1 4 16 27 19 28 37 1 74 -22 31 -56 38
-77 17 -10 -10 -14 -10 -21 0 -5 9 -15 -2 -29 -37 -12 -27 -22 -57 -22 -66 0
-9 -5 -13 -11 -9 -14 8 -4 96 16 133 15 29 52 66 75 74 31 11 113 6 145 -9z
m-4605 -49 c0 -8 -4 -15 -10 -15 -5 0 -10 7 -10 15 0 8 5 15 10 15 6 0 10 -7
10 -15z m6397 -22 c-11 -10 -26 8 -20 23 5 15 7 14 15 -1 6 -9 7 -19 5 -22z
m-1886 -39 c17 -15 17 -17 -6 -41 -14 -16 -29 -24 -39 -20 -21 8 -20 46 2 63
22 17 22 17 43 -2z m1869 -24 c0 -5 -4 -10 -10 -10 -5 0 -10 5 -10 10 0 6 5
10 10 10 6 0 10 -4 10 -10z m-2179 -112 c19 -6 44 -18 57 -26 l23 -15 -28 -18
c-65 -43 -82 -111 -43 -174 l21 -33 -31 -22 -30 -22 -61 56 c-33 31 -84 68
-112 82 -50 25 -96 68 -97 89 0 16 66 57 123 76 60 21 130 24 178 7z m339 -26
c41 -41 48 -90 20 -146 -44 -92 -134 -130 -205 -86 -42 26 -55 47 -55 90 0 42
-24 35 -28 -9 -4 -43 -26 -35 -30 12 -4 46 32 87 76 87 21 0 41 12 70 40 34
34 46 40 82 40 32 0 48 -6 70 -28z m-3659 -41 c36 -37 37 -70 3 -111 -35 -41
-70 -38 -101 9 -31 46 -30 84 3 110 36 28 60 26 95 -8z m1941 -45 c52 -13 129
-40 171 -60 84 -40 82 -37 71 -131 l-6 -51 -57 27 c-71 33 -161 63 -168 55 -3
-3 46 -31 110 -62 108 -52 144 -74 118 -74 -6 0 -55 15 -108 33 -88 29 -110
32 -214 32 -111 0 -119 -1 -177 -32 l-62 -32 0 133 c0 144 3 152 60 175 45 18
163 12 262 -13z m990 14 c61 -17 68 -37 68 -184 l0 -129 -22 20 c-67 62 -266
70 -419 15 -46 -16 -92 -33 -101 -37 -12 -5 -18 -3 -18 7 0 7 53 40 117 73 65
33 111 61 102 63 -20 4 -140 -41 -186 -69 l-33 -21 0 60 c0 33 -3 68 -6 76 -5
13 12 25 71 52 150 69 331 100 427 74z m-569 -101 c26 -19 26 -23 23 -110 -3
-77 -7 -93 -26 -114 -50 -54 -114 -22 -130 64 -18 95 -13 137 16 160 34 27 84
27 117 0z m770 -44 c26 -20 52 -45 58 -57 l12 -22 -29 23 c-16 12 -46 33 -66
48 -36 24 -48 43 -29 43 4 0 29 -16 54 -35z m-1703 -155 c0 -5 -4 -10 -10 -10
-5 0 -10 5 -10 10 0 6 5 10 10 10 6 0 10 -4 10 -10z m256 -34 c71 -35 215 -38
324 -6 19 5 46 10 59 10 21 0 22 -2 10 -16 -20 -24 -93 -53 -179 -71 -88 -18
-205 -12 -248 13 -23 14 -22 12 7 -14 40 -36 97 -52 189 -52 83 0 151 19 255
72 44 21 82 37 85 33 3 -3 -10 -19 -29 -35 -138 -118 -454 -147 -523 -48 -21
29 -20 92 0 112 19 19 15 19 50 2z m974 -11 c36 -8 107 -15 158 -15 79 0 95 3
112 20 16 16 25 18 39 11 42 -23 43 -92 1 -131 -75 -70 -256 -66 -415 10 -58
28 -121 77 -112 87 3 2 38 -14 79 -36 89 -48 173 -71 265 -71 63 0 157 22 167
38 2 4 -37 6 -88 4 -108 -4 -205 15 -278 55 -26 14 -48 29 -48 33 0 14 15 21
35 15 11 -3 49 -12 85 -20z m-1398 -142 c161 -96 280 -217 344 -349 47 -98 43
-102 -14 -14 -80 125 -202 249 -342 348 -77 54 -87 62 -76 62 5 0 44 -21 88
-47z m999 -7 c-32 -51 -106 -115 -167 -143 -109 -49 -235 -38 -285 25 -26 33
-9 40 29 12 97 -72 247 -33 375 96 64 65 84 69 48 10z m164 3 c98 -103 181
-143 279 -137 51 3 71 10 101 32 l37 28 -4 -28 c-4 -42 -63 -69 -149 -69 -57
0 -76 5 -142 39 -78 39 -141 97 -171 155 -24 45 -7 38 49 -20z m833 -76 c-113
-90 -113 -90 -105 -76 10 17 169 143 180 143 5 0 -29 -30 -75 -67z m-340 16
c-4 -31 -35 -49 -48 -29 -14 23 -12 30 13 40 34 13 39 12 35 -11z m-878 7 c0
-2 -7 -7 -16 -10 -8 -3 -12 -2 -9 4 6 10 25 14 25 6z m-43 -19 c9 -9 -99 -8
-114 1 -6 4 15 7 48 6 33 0 62 -4 66 -7z m385 -87 c78 -63 208 -128 279 -139
30 -5 77 -7 104 -4 l50 4 -24 -20 c-33 -30 -112 -28 -209 5 -97 32 -158 71
-222 141 -38 42 -50 50 -50 35 0 -23 -80 -98 -145 -137 -102 -59 -292 -83
-333 -41 -16 17 -15 18 34 11 104 -13 242 37 372 136 42 32 78 59 79 59 2 0
31 -22 65 -50z m-408 -226 c10 -4 16 -18 16 -40 0 -43 23 -45 40 -4 13 32 28
38 48 18 20 -20 14 -65 -14 -97 -48 -57 -124 -36 -153 42 -8 21 -8 34 0 50 19
34 34 42 63 31z m636 -80 c18 -21 2 -54 -25 -54 -31 0 -50 32 -35 59 11 21 41
19 60 -5z"/>
<path d="M7047 7953 c-8 -7 11 -33 24 -33 5 0 9 9 9 20 0 19 -20 27 -33 13z"/>
<path d="M7176 6763 c-3 -3 -6 -20 -6 -37 0 -17 -5 -48 -11 -70 -8 -27 -8 -41
0 -49 8 -8 11 -4 10 13 0 27 17 116 26 130 7 11 -10 22 -19 13z"/>
<path d="M7581 6634 c0 -11 3 -14 6 -6 3 7 2 16 -1 19 -3 4 -6 -2 -5 -13z"/>
<path d="M7245 6523 c-100 -108 0 -295 165 -310 47 -5 66 -1 104 18 87 43 130
144 92 218 -37 71 -134 117 -196 93 -78 -31 -123 -141 -88 -217 18 -39 72 -68
113 -61 76 15 103 119 46 177 -17 17 -40 29 -55 29 -35 0 -33 15 3 30 41 16
86 4 116 -32 51 -60 45 -128 -15 -188 -51 -51 -89 -58 -162 -30 -122 45 -176
181 -108 272 26 36 19 36 -15 1z m178 -108 c35 -16 38 -21 35 -54 -3 -31 -7
-36 -31 -39 -40 -5 -67 22 -67 68 0 36 7 53 19 46 3 -2 23 -11 44 -21z"/>
<path d="M7112 6320 c0 -14 2 -19 5 -12 2 6 2 18 0 25 -3 6 -5 1 -5 -13z"/>
<path d="M1416 6575 c-32 -30 -34 -72 -5 -109 44 -57 133 -17 133 61 0 68 -76
97 -128 48z m82 -17 c21 -21 14 -66 -13 -84 -28 -18 -42 -12 -56 23 -18 48 35
95 69 61z"/>
<path d="M2269 5831 c19 -12 151 -13 151 -1 0 6 -34 10 -82 10 -52 0 -78 -4
-69 -9z"/>
<path d="M2280 5627 c0 -8 8 -21 19 -31 15 -14 20 -14 30 -3 9 12 6 18 -13 31
-31 19 -36 20 -36 3z"/>
<path d="M2431 5631 c-1 -9 -11 -12 -36 -9 -29 3 -35 1 -35 -14 0 -13 8 -18
29 -18 31 0 56 22 48 42 -4 10 -6 10 -6 -1z"/>
<path d="M2249 5498 c0 -31 -1 -32 -11 -11 -15 31 -45 39 -69 17 -24 -21 -22
-72 2 -87 21 -13 69 -1 69 18 0 12 -5 13 -25 3 -33 -15 -53 1 -39 31 9 19 11
19 42 4 23 -11 32 -22 32 -39 0 -13 6 -24 13 -24 8 0 12 19 13 60 1 45 -2 60
-12 60 -9 0 -14 -12 -15 -32z"/>
<path d="M2354 5517 c-3 -8 -4 -34 -2 -58 3 -43 4 -44 41 -47 37 -3 37 -3 37
35 1 34 2 36 12 18 7 -11 14 -36 18 -55 7 -46 34 -51 54 -11 23 43 21 81 -3
81 -11 0 -27 -10 -35 -22 l-16 -22 0 27 c0 19 -7 30 -22 36 -33 13 -40 4 -33
-40 6 -34 4 -39 -13 -39 -17 0 -19 6 -14 49 4 47 -12 79 -24 48z m152 -79 c-3
-13 -6 -29 -6 -35 0 -7 -4 -13 -10 -13 -11 0 -13 30 -4 54 9 25 27 19 20 -6z"/>
<path d="M2309 5518 c0 -2 -2 -27 -3 -55 -2 -39 1 -53 11 -53 9 0 13 16 13 55
0 30 -4 55 -10 55 -5 0 -10 -1 -11 -2z"/>
<path d="M2550 5450 c0 -17 -7 -47 -15 -66 -11 -26 -11 -35 -2 -32 14 5 42 59
51 101 5 22 3 27 -14 27 -16 0 -20 -7 -20 -30z"/>
<path d="M3492 4110 c0 -14 2 -19 5 -12 2 6 2 18 0 25 -3 6 -5 1 -5 -13z"/>
<path d="M3304 3732 c11 -19 83 -57 194 -106 l102 -44 -2 39 c-2 21 -6 39 -10
39 -5 0 -8 -5 -8 -11 0 -14 -25 -6 -135 41 -104 45 -152 59 -141 42z"/>
<path d="M4224 3634 c3 -8 6 -18 6 -20 0 -3 5 -2 10 1 15 9 12 22 -6 29 -12 5
-15 2 -10 -10z"/>
<path d="M7754 5308 c-10 -16 7 -30 22 -17 8 6 14 15 14 19 0 9 -30 8 -36 -2z"/>
<path d="M7843 5263 c-7 -2 -13 -11 -13 -19 0 -9 5 -12 12 -8 8 5 9 0 6 -14
-4 -12 -2 -22 3 -22 5 0 9 16 9 35 0 19 -1 35 -2 34 -2 0 -9 -3 -15 -6z"/>
<path d="M7894 5236 c0 -13 4 -22 9 -19 10 6 9 31 -2 37 -5 3 -8 -5 -7 -18z"/>
<path d="M8010 5221 c0 -6 5 -11 12 -11 6 0 8 -3 5 -7 -8 -7 52 -53 70 -53 8
0 13 12 13 29 0 25 -5 30 -36 35 -19 4 -42 10 -50 13 -8 3 -14 0 -14 -6z"/>
<path d="M7870 5069 c0 -11 5 -17 10 -14 6 3 10 13 10 21 0 8 -4 14 -10 14 -5
0 -10 -9 -10 -21z"/>
<path d="M6866 5459 c-33 -39 -33 -50 2 -90 15 -18 21 -30 15 -25 -7 4 -13 3
-13 -3 0 -14 45 -25 74 -17 18 4 28 18 40 52 l16 46 -34 34 c-42 42 -67 43
-100 3z"/>
<path d="M7009 5422 c5 -34 6 -35 9 -8 2 16 0 32 -5 37 -5 5 -7 -7 -4 -29z"/>
<path d="M6843 5355 c0 -7 6 -11 14 -8 7 3 13 6 13 8 0 2 -6 5 -13 8 -8 3 -14
-1 -14 -8z"/>
<path d="M4132 5377 l-22 -23 0 -636 c0 -611 1 -637 19 -659 l19 -24 959 -3
c527 -1 968 0 980 3 12 3 32 15 43 27 20 21 20 33 20 660 0 625 0 638 -20 658
-20 20 -33 20 -998 20 l-979 0 -21 -23z m406 -124 c-2 -10 -10 -18 -18 -18 -8
0 -16 8 -18 18 -2 12 3 17 18 17 15 0 20 -5 18 -17z m1210 0 c-5 -26 -38 -29
-38 -4 0 15 6 21 21 21 14 0 19 -5 17 -17z m-843 -29 c15 -36 20 -84 9 -84
-22 0 -44 24 -44 48 0 29 10 72 16 72 2 0 11 -16 19 -36z m127 -61 c-2 -13
-10 -23 -18 -23 -16 0 -36 34 -29 52 2 7 10 27 16 43 l11 30 12 -40 c7 -22 10
-50 8 -62z m-678 52 c9 -20 30 -44 50 -56 34 -20 40 -39 12 -39 -17 0 -52 -39
-61 -67 -9 -32 -19 -29 -30 10 -7 22 -22 38 -47 52 -21 11 -38 22 -38 25 0 4
16 12 35 19 27 10 37 20 46 52 7 21 14 39 15 39 2 0 10 -16 18 -35z m792 -21
c6 -49 -8 -73 -30 -55 -18 15 -21 63 -5 93 15 27 29 11 35 -38z m110 24 c16
-67 -4 -105 -32 -63 -14 22 -15 31 -6 46 7 10 12 26 12 34 0 28 18 15 26 -17z
m118 -13 c9 -44 -9 -82 -30 -64 -16 13 -18 47 -4 84 13 33 26 25 34 -20z m589
-67 l41 -21 -34 -16 c-23 -10 -42 -30 -54 -55 l-20 -40 -18 42 c-12 31 -26 46
-48 53 -38 14 -38 22 3 40 24 10 36 25 47 57 l15 43 13 -41 c11 -31 23 -45 55
-62z m-359 -11 c19 -20 19 -20 0 -34 -10 -7 -23 -26 -30 -41 l-12 -27 -7 32
c-4 19 -15 35 -26 38 -23 8 -25 25 -3 25 8 0 20 14 26 32 10 29 12 30 22 13 6
-10 20 -27 30 -38z m-911 23 c3 -11 18 -25 34 -31 28 -11 28 -11 6 -20 -13 -4
-32 -23 -43 -41 l-20 -33 0 27 c0 21 -6 29 -25 34 -28 7 -33 22 -9 31 8 3 20
16 25 29 10 29 25 31 32 4z m345 -133 l4 -97 -25 0 c-25 0 -26 1 -29 96 -2 53
-2 97 -1 98 2 2 13 2 25 1 21 -2 23 -7 26 -98z m226 57 c3 -26 6 -71 6 -100 0
-54 0 -54 -31 -54 -30 0 -31 2 -25 31 3 17 6 62 6 100 0 61 2 69 19 69 14 0
20 -10 25 -46z m-344 -60 c0 -86 -2 -94 -19 -94 -26 0 -31 19 -31 110 0 76 0
78 25 78 25 0 25 -1 25 -94z m230 -7 c0 -96 0 -98 -22 -95 -22 3 -23 8 -26 99
l-3 97 26 -2 c25 -1 25 -1 25 -99z m230 6 c0 -93 0 -93 -25 -93 -25 0 -25 0
-25 94 0 94 0 94 25 92 25 -1 25 -2 25 -93z m393 -89 c9 -10 -4 -34 -18 -34
-17 0 -28 17 -20 30 7 11 28 13 38 4z m-1275 -21 c-5 -25 -28 -28 -28 -4 0 12
6 21 16 21 9 0 14 -7 12 -17z m927 -2 c-22 -22 -182 -33 -365 -26 -297 11
-285 23 23 22 152 0 280 3 284 7 3 3 20 6 37 6 18 0 26 -4 21 -9z m45 -55 c0
-29 -4 -34 -36 -44 -20 -6 -43 -8 -51 -5 -13 5 -15 1 -11 -21 6 -32 -8 -45
-17 -16 -10 33 -43 45 -66 24 -10 -9 -19 -23 -19 -31 0 -20 -18 -16 -25 7 -3
11 -18 23 -32 26 -21 6 -30 2 -45 -20 -25 -34 -41 -33 -55 4 -13 35 -38 39
-62 8 l-18 -21 -22 22 c-22 22 -23 22 -43 4 -19 -17 -21 -17 -42 10 -12 15
-30 27 -40 27 -10 0 -29 9 -43 20 -14 11 -32 20 -39 20 -8 0 -14 5 -14 10 0
10 29 9 143 -6 79 -10 403 -3 462 9 33 7 63 12 68 9 4 -2 7 -18 7 -36z m-836
-64 c-6 -9 -17 -17 -25 -17 -18 0 -24 32 -8 51 11 13 14 13 28 -1 12 -12 13
-19 5 -33z m1012 -7 c-6 -17 -36 -9 -36 9 0 7 5 17 12 24 9 9 14 9 21 -4 5 -8
6 -22 3 -29z m-166 -61 c0 -33 -27 -40 -182 -50 -67 -4 -88 -2 -88 7 0 10 -3
10 -12 1 -7 -7 -32 -12 -56 -12 -39 0 -43 2 -32 15 8 10 21 13 33 9 11 -3 17
-2 14 2 -3 5 6 23 19 39 l25 30 20 -28 c12 -15 29 -31 38 -37 14 -7 17 -5 17
12 -1 25 25 44 48 35 9 -4 16 -16 16 -27 0 -14 7 -20 23 -20 18 0 23 5 23 22
-1 29 30 36 39 9 12 -39 30 -22 28 27 -1 10 2 10 13 1 8 -6 14 -22 14 -35z
m400 27 c0 -22 44 -71 64 -71 29 0 26 -19 -4 -35 -19 -10 -39 -32 -49 -56
l-18 -39 -15 39 c-11 28 -27 45 -53 59 l-38 19 39 19 c28 14 41 28 48 52 10
35 26 43 26 13z m-962 -36 c-12 -27 -48 -34 -48 -11 0 17 39 48 51 40 5 -2 3
-16 -3 -29z m102 1 c3 -16 11 -31 19 -34 9 -3 11 1 7 14 -3 11 1 28 9 38 13
18 16 18 40 2 14 -9 25 -20 25 -24 0 -21 -41 -39 -92 -41 -61 -2 -73 9 -62 55
9 36 47 29 54 -10z m-562 -110 c42 -12 40 -21 -7 -45 -26 -14 -43 -31 -51 -53
l-11 -33 -17 35 c-10 20 -31 42 -50 52 -48 23 -48 25 -9 44 26 12 41 29 52 57
l16 40 22 -44 c16 -33 30 -46 55 -53z m522 43 c183 -12 362 -7 480 12 54 9 77
9 97 0 14 -6 23 -14 20 -17 -10 -10 -190 -32 -323 -39 -206 -11 -531 21 -542
54 -4 11 5 13 44 7 27 -3 128 -11 224 -17z m-197 -56 c162 -23 535 -23 691 1
60 9 124 16 143 16 l33 0 0 -57 c0 -98 -36 -140 -65 -79 -15 31 -45 50 -45 29
0 -5 -11 -25 -24 -47 l-23 -39 -32 47 c-18 26 -37 46 -43 44 -6 -2 -18 -24
-27 -48 -9 -24 -21 -45 -27 -47 -6 -2 -21 17 -33 42 -11 25 -27 45 -34 45 -7
0 -23 -21 -35 -46 -12 -25 -28 -44 -35 -42 -6 3 -21 21 -32 41 -11 20 -26 37
-32 37 -7 0 -22 -20 -34 -45 -12 -25 -25 -45 -29 -45 -5 0 -19 19 -32 42 -13
24 -30 44 -38 46 -9 1 -26 -15 -40 -38 -14 -22 -28 -40 -31 -40 -4 0 -17 20
-29 45 -12 25 -26 45 -31 45 -5 0 -22 -20 -37 -45 -15 -25 -31 -45 -35 -45 -4
0 -19 25 -32 55 -14 30 -27 55 -30 55 -2 0 -20 -23 -38 -50 -33 -49 -34 -49
-51 -31 -16 18 -45 114 -46 154 0 21 3 21 153 0z m-97 -213 c5 0 24 14 42 30
l33 30 36 -37 35 -38 24 30 c13 17 24 33 24 38 0 17 16 5 38 -28 29 -45 55
-45 86 1 l24 36 16 -29 c31 -61 71 -67 97 -15 7 15 15 29 16 31 2 2 18 -13 37
-35 30 -35 35 -37 51 -24 10 8 26 28 35 43 l18 28 22 -36 c28 -45 55 -44 86 3
l22 32 22 -30 c26 -37 46 -38 72 -5 24 31 52 32 72 4 l14 -21 24 22 23 21 3
-47 c2 -30 -1 -50 -9 -55 -25 -15 -185 -39 -340 -51 -122 -9 -198 -9 -341 0
-261 17 -359 44 -358 100 1 13 4 12 14 -7 11 -19 14 -21 19 -7 4 9 2 16 -3 16
-5 0 -6 7 -3 17 5 12 3 14 -8 8 -8 -4 -11 -5 -7 0 4 4 2 17 -4 29 -6 11 5 4
24 -16 19 -21 39 -38 44 -38z m-372 -19 c9 -17 27 -32 43 -36 l28 -7 -37 -30
c-21 -16 -38 -39 -38 -49 0 -28 -17 -23 -24 7 -4 14 -20 33 -36 42 -36 21 -37
28 -6 36 14 3 29 18 36 36 7 16 14 30 16 30 2 0 10 -13 18 -29z m1660 -23 c6
-13 21 -27 34 -33 28 -12 28 -22 1 -30 -11 -4 -29 -20 -38 -37 l-19 -29 -10
30 c-7 20 -20 33 -36 37 -31 7 -34 24 -6 31 12 3 28 19 36 35 16 32 21 31 38
-4z m-1088 -78 c205 -17 488 -8 648 20 123 22 146 21 146 -4 0 -49 -455 -89
-750 -67 -215 17 -350 46 -350 76 0 21 9 22 79 5 38 -10 140 -23 227 -30z
m-256 -45 c172 -48 750 -45 1010 5 95 18 120 15 120 -15 0 -14 -45 -28 -155
-49 -297 -55 -787 -44 -1059 25 -39 10 -46 15 -46 37 0 23 3 24 38 19 20 -4
62 -13 92 -22z"/>
<path d="M3978 4743 c-22 -5 -35 -50 -21 -72 15 -24 74 -27 90 -5 18 25 16 41
-7 64 -20 20 -29 22 -62 13z"/>
<path d="M7049 5077 c-64 -43 -75 -144 -23 -206 51 -61 134 -64 199 -8 32 28
38 40 42 83 4 35 0 60 -11 81 -36 70 -140 95 -207 50z m147 -39 c37 -38 36
-94 -3 -132 -22 -23 -34 -26 -71 -24 -55 4 -86 38 -86 94 0 29 7 43 33 66 28
25 39 29 69 24 20 -3 46 -16 58 -28z"/>
<path d="M7480 4561 c0 -5 7 -15 17 -22 15 -13 15 -12 4 9 -12 23 -21 28 -21
13z"/>
<path d="M7796 4273 c-6 -14 -5 -15 5 -6 7 7 10 15 7 18 -3 3 -9 -2 -12 -12z"/>
<path d="M7834 4725 c-8 -21 2 -45 19 -45 20 0 40 27 33 45 -7 19 -45 20 -52
0z"/>
<path d="M2220 5080 c0 -5 6 -10 14 -10 8 0 18 5 21 10 3 6 -3 10 -14 10 -12
0 -21 -4 -21 -10z"/>
<path d="M1688 5053 c6 -2 18 -2 25 0 6 3 1 5 -13 5 -14 0 -19 -2 -12 -5z"/>
<path d="M1641 5039 c-18 -7 -21 -16 -21 -59 0 -51 23 -90 53 -90 57 0 100 66
75 117 -14 30 -67 46 -107 32z m82 -30 c18 -16 18 -19 4 -33 -13 -14 -15 -13
-20 4 -4 15 -14 20 -41 20 -39 0 -49 17 -13 22 41 7 51 5 70 -13z m-52 -49
c33 0 36 -7 15 -36 -13 -17 -16 -17 -29 -4 -8 8 -18 26 -21 40 -3 14 -3 19 0
13 3 -7 19 -13 35 -13z"/>
<path d="M6750 4595 l0 -25 170 0 170 0 0 25 0 25 -170 0 -170 0 0 -25z"/>
<path d="M5808 3768 c7 -9 9 -18 5 -20 -4 -3 -2 -3 5 -2 6 2 12 -3 12 -11 0
-9 -6 -12 -17 -9 -15 5 -15 4 -3 -4 34 -25 41 16 8 44 -16 13 -19 14 -10 2z"/>
<path d="M5858 3727 c-3 -19 -2 -25 4 -19 6 6 8 18 6 28 -3 14 -5 12 -10 -9z"/>
<path d="M5712 3583 c2 -22 8 -28 28 -28 20 0 25 5 25 25 0 20 -6 26 -28 28
-26 3 -28 1 -25 -25z"/>
<path d="M2909 4515 c-153 -49 -254 -191 -253 -355 2 -107 31 -179 103 -250
85 -85 134 -105 256 -105 90 0 105 3 154 28 72 38 146 115 179 185 23 49 27
69 27 152 0 85 -4 101 -30 155 -36 74 -96 135 -167 171 -66 34 -194 43 -269
19z m249 -36 c140 -60 209 -197 177 -351 -32 -157 -145 -261 -296 -275 -120
-12 -249 66 -300 179 -34 75 -35 223 -2 284 28 52 96 120 145 145 61 31 143
26 217 -13 87 -47 144 -95 185 -157 44 -66 47 -56 5 17 -63 111 -153 171 -269
181 -57 4 -60 6 -30 11 49 9 118 1 168 -21z"/>
<path d="M2947 4390 c-56 -11 -117 -58 -146 -113 -61 -119 -6 -283 112 -332
41 -17 119 -22 158 -10 47 15 109 66 136 113 23 39 28 58 27 112 -1 116 -57
195 -160 226 -51 15 -68 16 -127 4z m-49 -69 c-94 -103 -59 -275 66 -332 52
-24 90 -23 144 1 48 22 48 9 0 -16 -47 -24 -136 -15 -186 19 -56 39 -92 110
-92 181 0 67 16 109 58 154 43 45 52 40 10 -7z m184 -98 c39 -35 8 -113 -46
-113 -27 0 -66 42 -66 71 0 49 74 76 112 42z"/>
<path d="M6832 4339 c-75 -37 -115 -124 -98 -214 9 -47 76 -120 123 -136 104
-34 229 40 249 149 8 41 -8 97 -40 145 -13 19 -22 38 -20 41 2 3 1 4 -2 1 -4
-2 -24 5 -45 15 -50 26 -113 25 -167 -1z"/>
<path d="M7138 4143 c-34 -232 -354 -259 -433 -37 -10 28 -14 33 -15 16 0 -37
28 -94 68 -135 39 -40 108 -67 172 -67 48 0 135 44 164 84 32 42 58 117 54
152 -3 25 -4 23 -10 -13z"/>
<path d="M7565 4395 c-49 -48 -16 -125 53 -125 45 0 72 30 72 79 0 30 -6 44
-22 55 -33 23 -75 20 -103 -9z m79 -31 c9 -25 -11 -53 -34 -47 -21 5 -25 19
-14 47 8 21 40 21 48 0z"/>
<path d="M2004 4450 c-60 -24 -73 -112 -25 -161 33 -32 58 -36 101 -14 68 35
79 98 26 151 -34 34 -61 41 -102 24z m84 -36 c19 -13 22 -24 20 -56 -6 -79
-89 -104 -124 -37 -38 75 36 141 104 93z"/>
<path d="M7525 3751 c-3 -6 -16 -11 -29 -11 -32 0 -39 -10 -19 -32 30 -34 87
-18 81 22 -3 26 -22 37 -33 21z"/>
<path d="M3977 3498 c-29 -26 -53 -78 -36 -78 11 0 102 21 107 25 3 3 -38 75
-42 75 -2 0 -15 -10 -29 -22z"/>
<path d="M3748 3423 c-45 -5 -69 -28 -39 -38 27 -8 27 -25 1 -32 -24 -6 -26
-19 -4 -27 23 -9 27 -8 20 9 -4 10 1 15 15 15 31 0 76 27 82 50 3 11 1 20 -3
20 -5 0 -14 1 -22 3 -7 2 -30 2 -50 0z"/>
<path d="M4077 3317 c-21 -16 -28 -30 -25 -47 3 -23 7 -25 55 -25 29 1 55 4
58 7 7 7 -41 88 -53 88 -4 0 -20 -10 -35 -23z"/>
<path d="M6416 3334 c-11 -8 -30 -14 -42 -14 -30 0 -40 -17 -15 -25 23 -7 68
12 76 33 8 21 3 23 -19 6z"/>
<path d="M5468 8545 c-54 -53 -118 -145 -133 -192 -12 -42 10 -23 35 30 14 29
59 87 102 132 43 44 78 81 78 83 0 1 -6 2 -13 2 -6 0 -38 -25 -69 -55z"/>
<path d="M2591 8536 c-40 -41 -52 -59 -47 -74 6 -19 132 -144 190 -190 40 -31
84 -28 134 8 42 30 77 83 67 100 -3 5 -25 14 -48 20 -95 24 -153 67 -222 163
l-20 28 -54 -55z"/>
<path d="M4987 8564 c3 -8 9 -14 15 -14 5 0 6 -10 3 -21 -5 -16 -4 -19 5 -14
8 5 18 1 27 -10 7 -11 13 -14 13 -8 0 6 -7 16 -15 23 -8 7 -15 17 -15 23 0 6
12 0 27 -14 28 -25 15 -1 -17 31 -20 19 -50 22 -43 4z"/>
<path d="M4960 8556 c0 -2 7 -9 15 -16 13 -11 14 -10 9 4 -5 14 -24 23 -24 12z"/>
<path d="M7320 8521 c0 -12 6 -21 16 -21 9 0 14 7 12 17 -5 25 -28 28 -28 4z"/>
<path d="M6090 8485 c0 -2 19 -17 43 -34 55 -37 113 -115 160 -211 41 -84 50
-71 13 19 -33 83 -77 143 -133 183 -45 33 -83 52 -83 43z"/>
<path d="M7810 8464 c0 -8 5 -12 10 -9 6 4 8 11 5 16 -9 14 -15 11 -15 -7z"/>
<path d="M2470 8415 c-16 -19 -9 -49 14 -53 35 -7 49 40 17 57 -14 8 -22 7
-31 -4z"/>
<path d="M7714 8371 c-23 -14 -41 -42 -74 -117 -24 -54 -45 -117 -48 -141 -4
-39 -1 -46 30 -76 39 -35 214 -110 258 -110 49 0 85 37 134 139 56 117 62 137
46 174 -13 31 -21 36 -196 114 -93 41 -107 43 -150 17z m183 -81 c77 -44 98
-93 69 -161 -35 -85 -92 -119 -165 -99 -103 28 -160 135 -116 220 40 77 121
92 212 40z"/>
<path d="M7765 8280 c-62 -25 -87 -99 -55 -165 20 -40 98 -79 139 -70 39 8 77
39 97 76 44 85 -86 199 -181 159z m72 -152 c-3 -8 -6 -5 -6 6 -1 11 2 17 5 13
3 -3 4 -12 1 -19z"/>
<path d="M3507 8343 c-4 -3 -7 -28 -7 -55 0 -36 -4 -48 -15 -48 -8 0 -15 5
-15 10 0 6 -7 10 -15 10 -26 0 -16 -21 15 -31 25 -9 30 -16 30 -44 0 -19 5
-37 10 -40 6 -4 10 10 10 34 0 32 4 41 17 41 15 0 15 1 -2 13 -14 11 -17 23
-13 65 5 49 0 61 -15 45z"/>
<path d="M7282 8278 c-18 -18 -14 -46 9 -58 30 -16 49 -5 49 29 0 37 -33 54
-58 29z"/>
<path d="M4852 8171 c-12 -16 -35 -32 -52 -36 -37 -8 -37 -12 -4 -38 23 -17
25 -26 21 -59 -5 -34 -3 -39 11 -33 59 24 74 27 85 16 23 -23 37 -12 37 28 0
22 6 44 15 51 22 18 18 28 -13 35 -16 3 -35 18 -46 35 -21 37 -27 37 -54 1z"/>
<path d="M6513 8125 l-32 -34 36 -36 c30 -30 38 -34 45 -21 11 20 35 43 49 48
9 3 -53 79 -63 77 -2 0 -17 -16 -35 -34z"/>
<path d="M7420 8101 c0 -5 7 -11 15 -15 9 -3 15 0 15 9 0 8 -7 15 -15 15 -8 0
-15 -4 -15 -9z"/>
<path d="M3300 8084 c0 -9 5 -14 12 -12 18 6 21 28 4 28 -9 0 -16 -7 -16 -16z"/>
<path d="M3400 8030 c-11 -11 -20 -31 -20 -45 0 -23 4 -25 45 -25 39 0 45 3
45 21 0 52 -39 80 -70 49z"/>
<path d="M3591 7984 c0 -11 3 -14 6 -6 3 7 2 16 -1 19 -3 4 -6 -2 -5 -13z"/>
<path d="M2290 7951 c-13 -26 -3 -50 26 -57 30 -8 44 2 44 30 0 44 -50 63 -70
27z"/>
<path d="M5149 7898 c-11 -20 -10 -21 3 -11 8 7 18 10 21 6 4 -3 7 1 7 10 0
24 -17 21 -31 -5z"/>
<path d="M3040 7836 c0 -9 6 -16 13 -16 6 0 22 -3 35 -6 16 -5 22 -2 22 10 0
9 -8 16 -19 16 -11 0 -26 3 -35 6 -11 4 -16 1 -16 -10z"/>
<path d="M7635 7760 c-10 -11 -27 -20 -38 -20 -19 0 -19 -1 -2 -26 14 -21 15
-31 6 -51 -16 -35 -14 -37 14 -19 27 18 56 10 83 -23 12 -14 13 -14 7 4 -19
52 -18 68 6 86 l24 19 -27 0 c-21 0 -29 6 -34 25 -7 30 -15 31 -39 5z"/>
<path d="M2977 7755 c-5 -10 0 -15 13 -15 11 0 20 -5 20 -11 0 -7 -9 -9 -22
-6 -22 6 -22 6 -4 -9 24 -17 39 -5 34 27 -4 27 -33 37 -41 14z"/>
<path d="M3046 7739 c-9 -49 -7 -59 12 -59 41 0 59 60 23 80 -27 14 -28 14
-35 -21z m34 -14 c0 -8 0 -18 1 -22 0 -4 -4 -9 -10 -11 -6 -2 -11 8 -11 22 0
14 5 26 10 26 6 0 10 -7 10 -15z"/>
<path d="M2295 7748 c-4 -10 -5 -25 -1 -33 6 -17 -19 -21 -29 -5 -8 13 -85 13
-85 1 0 -6 25 -25 55 -43 l55 -33 0 -52 c0 -49 -2 -53 -23 -53 -13 0 -28 5
-34 11 -8 8 -13 8 -17 0 -4 -6 -19 -11 -34 -11 -51 0 -54 -13 -14 -56 42 -45
110 -99 117 -92 3 2 -13 20 -35 40 -22 19 -42 33 -45 30 -3 -3 -5 -1 -6 4 0 5
-2 17 -4 28 -3 16 0 15 22 -5 15 -13 23 -18 19 -11 -4 6 -2 12 4 12 6 0 9 4 6
9 -5 8 34 24 41 18 1 -2 5 -39 9 -84 l7 -82 -34 -9 -34 -10 33 -1 c30 -1 32
-3 32 -36 0 -45 -14 -45 -74 1 -40 31 -52 35 -82 30 -27 -6 -34 -4 -34 9 0 9
9 19 20 22 25 7 25 15 0 38 -34 31 -100 -1 -100 -50 0 -31 35 -55 82 -55 36 0
38 -2 38 -30 0 -18 5 -30 13 -30 21 0 28 12 15 27 -6 7 -8 16 -4 20 10 10 39
-24 34 -39 -6 -14 -168 -108 -187 -108 -6 0 -25 -9 -43 -20 -18 -11 -41 -20
-51 -20 -26 0 -19 -11 46 -70 35 -32 63 -50 72 -46 23 8 18 35 -13 65 l-28 28
86 55 c108 70 351 168 416 168 17 0 20 -5 16 -31 -5 -33 8 -49 43 -49 32 0
125 -47 183 -93 30 -22 74 -68 100 -101 25 -34 47 -63 48 -65 9 -11 78 57 104
102 31 54 42 101 15 62 -45 -64 -38 -63 -81 -15 -21 24 -53 58 -71 74 -29 28
-30 33 -19 55 16 29 6 82 -21 120 -10 14 -50 42 -88 61 -64 32 -76 35 -160 35
-91 0 -95 -1 -232 -62 -7 -3 -13 1 -13 8 0 8 28 30 61 49 66 37 95 70 85 96
-5 13 -17 14 -76 8 l-70 -7 0 67 c0 64 1 66 35 88 40 27 40 43 -1 42 -18 0
-35 8 -46 20 -15 19 -17 20 -23 4z m62 -256 c-20 -22 -21 -30 -4 -28 18 2 21
-18 3 -22 -9 -2 -18 6 -22 22 -7 29 1 46 23 46 15 0 14 -2 0 -18z m83 9 c0 -5
-7 -14 -15 -21 -16 -14 -18 -10 -9 14 6 17 24 22 24 7z m100 -101 c-57 -10
-95 -25 -132 -51 -39 -28 -46 -19 -7 10 42 31 97 50 144 49 l40 0 -45 -8z m97
4 c-3 -3 -12 -4 -19 -1 -8 3 -5 6 6 6 11 1 17 -2 13 -5z m22 -26 c11 -10 13
-10 7 0 -4 6 -5 12 -1 12 15 0 103 -51 115 -67 14 -17 14 -17 -6 -1 -11 10
-37 24 -57 33 -37 15 -37 15 -25 -6 10 -17 10 -23 1 -26 -7 -3 -13 -12 -13
-20 0 -9 -3 -13 -7 -10 -3 4 -13 2 -20 -5 -11 -9 -17 -9 -24 3 -7 11 -9 11 -9
0 0 -8 -7 -11 -19 -8 -13 3 -22 -2 -27 -17 -5 -15 -9 -3 -11 42 -2 34 -8 62
-13 62 -6 0 -10 -11 -10 -24 0 -20 -6 -25 -37 -29 -21 -2 -44 0 -51 6 -9 7
-16 7 -24 -1 -7 -7 -16 -12 -22 -12 -5 0 -1 7 10 15 12 9 31 12 52 8 28 -4 34
-2 38 15 3 11 15 24 27 30 31 15 110 14 126 0z m91 -72 c0 -3 -4 -8 -10 -11
-5 -3 -10 -1 -10 4 0 6 5 11 10 11 6 0 10 -2 10 -4z m78 -41 c-3 -3 -9 2 -12
12 -6 14 -5 15 5 6 7 -7 10 -15 7 -18z m-94 -54 c28 -12 65 -33 84 -47 35 -27
126 -143 118 -151 -3 -3 -34 26 -70 65 -68 71 -165 132 -235 147 -21 5 -29 10
-21 15 16 10 62 -1 124 -29z"/>
<path d="M1660 7699 c0 -34 5 -35 138 -44 98 -6 102 -6 102 14 0 16 -8 21 -47
25 -27 3 -81 12 -120 19 l-73 13 0 -27z"/>
<path d="M8269 7718 c7 -9 9 -23 5 -30 -6 -10 -4 -11 7 0 11 10 10 15 -6 30
-17 15 -18 15 -6 0z"/>
<path d="M3276 7680 c-49 -16 -96 -30 -106 -30 -9 0 -38 -19 -63 -43 -37 -34
-47 -50 -47 -74 0 -28 4 -33 38 -42 50 -14 53 -14 122 9 l60 20 61 -31 c78
-39 103 -39 174 -1 l57 31 60 -20 c46 -15 70 -18 101 -12 38 8 42 12 45 41 3
26 -4 40 -32 68 -20 20 -36 43 -36 50 0 11 -8 13 -32 9 -24 -5 -49 1 -93 21
-92 43 -193 44 -309 4z m184 -15 c13 -14 22 -25 19 -26 -17 -4 -109 -3 -109 1
0 9 45 49 56 49 6 1 21 -10 34 -24z m-260 -49 c0 -8 -4 -18 -10 -21 -5 -3 -10
-4 -10 -1 0 2 -3 11 -6 20 -4 11 -1 16 10 16 9 0 16 -6 16 -14z m510 -36 c23
-45 15 -52 -20 -16 -13 15 -20 32 -17 40 9 24 15 20 37 -24z m-238 -4 c4 -6 8
-17 8 -23 0 -7 5 -13 10 -13 19 0 10 -19 -20 -40 -35 -25 -40 -20 -9 9 21 19
21 21 5 46 -9 14 -23 25 -31 25 -8 0 -15 5 -15 11 0 13 42 1 52 -15z m-62 10
c0 -2 -12 -11 -26 -21 -25 -16 -25 -16 -14 4 9 17 40 30 40 17z m-257 -12 c10
-10 -12 -44 -28 -44 -12 0 -12 5 -3 25 11 25 19 30 31 19z m284 -36 c-3 -8 -6
-5 -6 6 -1 11 2 17 5 13 3 -3 4 -12 1 -19z m-20 -10 c-3 -8 -6 -5 -6 6 -1 11
2 17 5 13 3 -3 4 -12 1 -19z m-6 -22 c5 3 9 -2 9 -10 0 -9 -4 -16 -9 -16 -13
0 -61 40 -61 51 0 6 12 1 26 -10 15 -11 30 -18 35 -15z"/>
<path d="M3425 7660 c3 -5 8 -10 11 -10 2 0 4 5 4 10 0 6 -5 10 -11 10 -5 0
-7 -4 -4 -10z"/>
<path d="M1633 7638 c-7 -7 -46 -32 -87 -53 -73 -38 -91 -60 -63 -71 8 -3 50
9 93 26 74 30 86 32 197 31 112 -2 117 -1 117 19 0 19 -6 20 -109 20 -99 0
-110 2 -123 21 -11 18 -15 19 -25 7z"/>
<path d="M2616 7564 c-12 -31 -6 -44 19 -44 30 0 43 24 25 45 -16 20 -36 19
-44 -1z"/>
<path d="M1571 7503 c-39 -18 -71 -35 -71 -38 0 -3 4 -13 10 -23 5 -9 29 -60
53 -112 47 -102 63 -121 120 -145 50 -21 106 -19 146 6 22 13 46 19 66 17 l32
-4 -20 56 c-12 35 -21 93 -25 162 l-5 107 -118 3 c-114 3 -119 2 -188 -29z
m69 -139 c0 -8 -4 -12 -10 -9 -5 3 -10 13 -10 21 0 8 5 12 10 9 6 -3 10 -13
10 -21z m100 6 c0 -5 -4 -10 -10 -10 -5 0 -10 5 -10 10 0 6 5 10 10 10 6 0 10
-4 10 -10z m0 -80 c15 0 47 7 70 15 24 8 45 13 47 11 10 -10 -46 -36 -89 -42
-40 -6 -48 -3 -81 26 -21 18 -37 36 -37 40 0 4 14 -5 31 -21 19 -18 42 -29 59
-29z"/>
<path d="M2016 7533 c-3 -4 -6 -15 -6 -25 0 -24 33 -21 38 3 3 17 -21 33 -32
22z"/>
<path d="M3860 7530 c0 -5 5 -10 10 -10 6 0 10 5 10 10 0 6 -4 10 -10 10 -5 0
-10 -4 -10 -10z"/>
<path d="M4424 7529 c-9 -16 21 -43 40 -36 9 4 16 16 16 27 0 15 -7 20 -24 20
-14 0 -28 -5 -32 -11z"/>
<path d="M8201 7511 c-6 -11 -23 -22 -38 -24 -27 -4 -27 -4 -5 -12 16 -5 22
-15 22 -35 0 -23 3 -27 20 -23 12 3 29 -2 42 -13 21 -19 21 -19 15 7 -4 16 -1
34 9 47 9 14 11 22 4 22 -6 0 -22 12 -35 26 -23 25 -24 25 -34 5z"/>
<path d="M2807 7499 c7 -7 15 -10 18 -7 3 3 -2 9 -12 12 -14 6 -15 5 -6 -5z"/>
<path d="M2790 7449 c0 -5 5 -7 10 -4 6 3 10 8 10 11 0 2 -4 4 -10 4 -5 0 -10
-5 -10 -11z"/>
<path d="M3280 7440 c-38 -25 -86 -30 -144 -15 -31 8 -59 15 -60 15 -12 0 62
-241 99 -326 21 -47 27 -52 61 -58 56 -8 387 -1 403 8 25 16 94 203 131 354 9
37 8 38 -26 15 -32 -21 -98 -20 -165 2 -48 16 -54 16 -86 1 -41 -20 -90 -20
-123 -1 -29 17 -69 19 -90 5z m24 -75 c3 -8 10 -54 16 -102 6 -49 13 -105 15
-125 4 -29 2 -38 -10 -38 -24 0 -86 227 -72 265 8 19 43 20 51 0z m306 -10
c-1 -11 -14 -72 -29 -135 -21 -83 -33 -116 -45 -118 -19 -4 -19 -3 -6 130 15
149 15 149 50 146 23 -2 30 -7 30 -23z m79 -90 c-40 -128 -59 -175 -70 -175
-11 0 -7 21 34 165 17 61 36 113 41 117 25 17 24 -15 -5 -107z m-533 97 c10
-7 84 -237 84 -263 0 -25 -19 6 -45 76 -23 58 -65 183 -65 193 0 5 15 1 26 -6z
m283 -2 c27 0 28 -1 24 -57 -12 -190 -14 -203 -34 -203 -23 0 -26 14 -36 158
-7 93 -6 112 5 107 8 -3 26 -5 41 -5z"/>
<path d="M6090 7400 c-9 -6 -10 -10 -3 -10 6 0 14 -8 16 -17 3 -11 5 -7 6 10
1 30 1 30 -19 17z"/>
<path d="M8460 7270 c0 -5 5 -10 10 -10 6 0 10 5 10 10 0 6 -4 10 -10 10 -5 0
-10 -4 -10 -10z"/>
<path d="M3798 7214 c-10 -22 -10 -28 6 -39 22 -17 43 -10 52 18 4 14 1 25
-12 34 -25 19 -33 16 -46 -13z"/>
<path d="M8077 7224 c-96 -30 -171 -139 -171 -246 1 -81 49 -177 112 -223 26
-19 53 -35 60 -35 13 0 17 -152 6 -222 l-7 -37 -19 24 c-24 31 -60 50 -110 59
l-38 7 0 -39 c0 -76 28 -132 104 -207 l71 -70 5 115 c4 76 12 128 23 154 13
29 17 67 17 154 0 135 19 343 33 357 6 6 7 -3 3 -25 -13 -72 -19 -420 -8 -420
22 0 32 39 34 127 1 58 3 70 5 37 l4 -52 59 29 c77 37 126 81 158 143 62 121
11 279 -115 353 -56 32 -155 40 -226 17z m148 -93 c109 -50 144 -175 72 -255
-25 -28 -96 -68 -108 -60 -15 9 2 30 35 42 65 24 102 92 85 156 -11 39 -66 94
-106 105 -70 19 -153 -27 -172 -95 -17 -61 11 -124 79 -181 21 -17 5 -16 -30
2 -32 17 -65 65 -75 112 -19 90 64 189 160 192 11 0 38 -8 60 -18z m-15 -56
c46 -24 61 -110 27 -153 -6 -7 -19 -18 -30 -24 -19 -10 -19 -9 1 17 44 55 21
145 -36 145 -44 0 -62 -26 -62 -89 -1 -51 -2 -54 -15 -37 -32 42 -9 127 39
146 31 13 44 12 76 -5z m-182 -602 c31 -23 32 -27 32 -95 l0 -70 -42 62 c-59
84 -75 111 -83 138 l-7 23 34 -16 c18 -10 48 -28 66 -42z"/>
<path d="M1375 7190 c-4 -6 -3 -16 3 -22 6 -6 12 -6 17 2 4 6 3 16 -3 22 -6 6
-12 6 -17 -2z"/>
<path d="M1526 7161 c-4 -5 -2 -12 3 -15 5 -4 12 -2 15 3 4 5 2 12 -3 15 -5 4
-12 2 -15 -3z"/>
<path d="M2440 7159 c-77 -8 -88 -11 -160 -57 -72 -46 -114 -93 -153 -172 -28
-57 -32 -74 -32 -150 0 -120 30 -194 110 -275 131 -131 293 -159 461 -79 106
50 161 117 198 243 42 142 -11 317 -125 411 -86 70 -169 92 -299 79z m171
-108 c110 -57 171 -157 171 -283 0 -119 -59 -215 -164 -267 -52 -27 -72 -31
-132 -30 l-71 2 62 8 c158 20 270 124 289 268 l7 51 -62 0 c-76 0 -80 15 -5
25 l56 7 -6 31 c-9 46 -54 105 -109 143 -93 64 -188 72 -285 23 -81 -40 -122
-91 -157 -194 -5 -13 -9 -15 -12 -7 -7 19 23 98 53 137 33 43 97 89 145 104
56 17 170 7 220 -18z m-76 -193 c51 -46 50 -129 -4 -161 -93 -55 -197 33 -150
126 30 59 106 76 154 35z m-324 -165 c14 -43 46 -97 78 -130 12 -13 18 -23 13
-23 -8 0 -55 48 -81 82 -17 23 -42 108 -31 108 5 0 14 -17 21 -37z m109 23 c0
-2 3 -11 6 -20 4 -11 1 -16 -10 -16 -9 0 -16 2 -16 4 0 2 -3 11 -6 20 -4 11
-1 16 10 16 9 0 16 -2 16 -4z m87 -232 c-3 -3 -12 -4 -19 -1 -8 3 -5 6 6 6 11
1 17 -2 13 -5z"/>
<path d="M2444 6846 c-28 -12 -43 -38 -44 -72 0 -7 13 -26 29 -43 26 -28 31
-29 62 -21 63 18 80 80 34 125 -27 28 -38 30 -81 11z m67 -58 c12 -22 14 -22
-36 -2 -10 4 -15 0 -15 -10 0 -9 8 -16 21 -16 11 0 17 -4 14 -10 -8 -13 -42
-13 -50 1 -11 17 4 57 23 62 22 5 29 0 43 -25z"/>
<path d="M2935 7130 c10 -11 20 -20 23 -20 3 0 -3 9 -13 20 -10 11 -20 20 -23
20 -3 0 3 -9 13 -20z"/>
<path d="M7375 7139 c-10 -15 3 -25 16 -12 7 7 7 13 1 17 -6 3 -14 1 -17 -5z"/>
<path d="M1570 7089 c-16 -30 -29 -39 -60 -39 l-25 -1 27 -15 c28 -15 45 -54
33 -73 -3 -6 -2 -11 4 -11 5 0 13 5 16 10 3 6 17 10 30 10 13 0 27 -4 30 -10
12 -19 22 -10 17 16 -3 17 3 33 18 50 l23 24 -26 0 c-17 0 -34 11 -50 31 l-25
32 -12 -24z"/>
<path d="M7265 7059 c-4 -6 -4 -13 -1 -16 8 -8 36 5 36 17 0 13 -27 13 -35 -1z"/>
<path d="M1327 7034 c-10 -10 -9 -42 2 -48 18 -11 42 6 39 28 -3 21 -28 33
-41 20z"/>
<path d="M1796 7021 c-4 -5 -2 -12 3 -15 5 -4 12 -2 15 3 4 5 2 12 -3 15 -5 4
-12 2 -15 -3z"/>
<path d="M6005 7010 c3 -5 8 -10 11 -10 2 0 4 5 4 10 0 6 -5 10 -11 10 -5 0
-7 -4 -4 -10z"/>
<path d="M7300 6985 c-8 -9 -8 -15 -2 -15 12 0 26 19 19 26 -2 2 -10 -2 -17
-11z"/>
<path d="M8900 6985 c7 -9 15 -13 17 -11 7 7 -7 26 -19 26 -6 0 -6 -6 2 -15z"/>
<path d="M3541 6948 c-7 -18 -18 -28 -31 -28 -27 0 -25 -16 3 -31 12 -7 26
-18 30 -25 11 -19 27 -18 27 1 0 8 9 20 20 27 24 15 26 28 5 28 -8 0 -15 4
-15 8 0 5 -6 17 -14 28 -14 18 -15 18 -25 -8z"/>
<path d="M6657 6793 c-13 -12 -7 -50 9 -64 31 -26 70 25 44 56 -13 16 -42 20
-53 8z"/>
<path d="M8581 6510 c-18 -4 -43 -20 -55 -34 -26 -32 -66 -47 -89 -35 -10 6
-17 6 -17 1 0 -5 -27 -28 -59 -51 -59 -41 -116 -99 -107 -108 3 -3 59 31 126
75 66 44 156 95 200 113 51 21 75 36 67 41 -14 9 -20 9 -66 -2z"/>
<path d="M2017 6464 c44 -55 92 -99 99 -91 8 8 -95 121 -115 126 -8 2 -1 -14
16 -35z"/>
<path d="M6830 6496 c0 -2 8 -10 18 -17 15 -13 16 -12 3 4 -13 16 -21 21 -21
13z"/>
<path d="M8484 6480 c0 -11 1 -20 3 -20 1 0 7 9 13 20 8 15 8 20 -3 20 -7 0
-13 -9 -13 -20z"/>
<path d="M1960 6406 c0 -19 226 -236 246 -236 15 0 15 2 -2 22 -35 41 -229
228 -236 228 -5 0 -8 -6 -8 -14z"/>
<path d="M2738 6376 c-33 -25 -11 -66 36 -66 20 0 30 35 16 60 -12 23 -28 25
-52 6z"/>
<path d="M2216 6281 c-13 -21 211 -251 244 -251 21 0 8 18 -67 97 -107 111
-170 166 -177 154z"/>
<path d="M2350 6263 c0 -11 125 -123 136 -123 11 0 -33 45 -88 92 -27 22 -48
36 -48 31z"/>
<path d="M7916 6187 c-39 -28 -72 -58 -74 -65 -2 -8 24 7 59 33 34 25 69 50
77 54 8 5 13 13 11 20 -2 6 -34 -12 -73 -42z"/>
<path d="M8718 6124 c-3 -3 -4 -14 -1 -25 6 -22 33 -26 33 -5 0 16 -24 39 -32
30z"/>
<path d="M1399 6109 c-25 -9 -45 -44 -30 -53 3 -2 42 0 86 5 136 15 245 -5
374 -70 77 -40 98 -35 50 10 -47 45 -122 85 -194 104 -66 17 -244 19 -286 4z"/>
<path d="M4268 6103 c7 -3 16 -2 19 1 4 3 -2 6 -13 5 -11 0 -14 -3 -6 -6z"/>
<path d="M8950 6029 c-52 -23 -157 -102 -143 -106 6 -2 43 12 84 32 40 19 76
32 80 27 7 -7 109 -598 109 -632 0 -13 -15 -19 -72 -28 -40 -6 -125 -20 -188
-32 -63 -12 -129 -19 -147 -16 -55 8 -273 144 -273 169 0 13 225 270 240 275
16 6 11 22 -6 22 -9 0 -65 -49 -124 -108 l-109 -108 -16 41 c-8 23 -29 54 -45
70 -17 16 -30 32 -30 36 0 3 46 21 102 39 125 39 152 49 147 55 -5 5 -257 -60
-266 -68 -3 -3 1 -30 8 -59 20 -78 17 -279 -4 -350 -9 -31 -17 -79 -17 -107 0
-49 1 -50 23 -41 31 13 170 40 209 40 76 0 95 24 55 68 -33 36 -19 45 27 18
57 -33 81 -33 251 4 77 17 163 33 191 36 l52 6 7 -50 c4 -28 13 -53 20 -56 19
-7 24 2 19 37 -8 64 -76 506 -100 648 -13 81 -24 149 -24 153 0 10 -12 7 -60
-15z"/>
<path d="M7694 5986 c-44 -30 -134 -123 -134 -140 0 -14 39 11 87 56 28 26 56
48 61 48 5 0 22 16 36 35 35 45 16 45 -50 1z"/>
<path d="M8150 6003 c-46 -8 -186 -83 -220 -118 -43 -45 -19 -47 43 -5 66 45
146 79 200 86 32 5 51 13 58 25 9 17 6 19 -23 18 -18 -1 -44 -4 -58 -6z"/>
<path d="M8305 6000 c3 -5 13 -10 21 -10 8 0 14 5 14 10 0 6 -9 10 -21 10 -11
0 -17 -4 -14 -10z"/>
<path d="M1182 5988 c-29 -29 3 -83 33 -58 8 7 15 21 15 31 0 24 -33 42 -48
27z"/>
<path d="M1385 5988 c-2 -7 -6 -33 -7 -58 -3 -43 -4 -45 -30 -42 -17 2 -28 -1
-28 -8 0 -8 11 -11 30 -8 21 3 30 0 33 -11 4 -12 5 -12 6 3 1 14 6 17 26 12
22 -6 25 -3 25 19 0 15 -4 24 -10 20 -5 -3 -8 -11 -6 -18 1 -7 1 -9 -1 -4 -3
4 -11 7 -19 7 -17 0 -20 60 -3 77 8 8 8 13 0 18 -6 3 -13 0 -16 -7z"/>
<path d="M1520 5986 c0 -17 22 -26 67 -26 54 0 149 -28 225 -66 63 -32 92 -30
51 3 -88 69 -343 136 -343 89z"/>
<path d="M4253 5983 c9 -2 25 -2 35 0 9 3 1 5 -18 5 -19 0 -27 -2 -17 -5z"/>
<path d="M7017 5980 c-15 -5 -41 -7 -57 -5 -27 4 -30 1 -30 -25 0 -17 5 -30
10 -30 6 0 10 9 10 20 0 21 8 24 34 14 9 -3 13 -10 10 -15 -3 -5 0 -9 6 -9 7
0 14 9 17 21 4 16 12 20 29 16 16 -3 24 0 24 9 0 16 -12 16 -53 4z"/>
<path d="M7056 5941 c-4 -7 -5 -15 -2 -18 9 -9 19 4 14 18 -4 11 -6 11 -12 0z"/>
<path d="M8140 5886 c-57 -16 -99 -38 -83 -43 7 -3 44 2 82 11 39 9 102 16
141 16 53 0 71 3 68 13 -6 17 -150 19 -208 3z"/>
<path d="M1143 5860 c1 -11 5 -20 9 -20 4 0 8 9 8 20 0 11 -4 20 -9 20 -6 0
-9 -9 -8 -20z"/>
<path d="M7257 5800 c-3 -11 -21 -27 -41 -35 -23 -10 -38 -24 -42 -40 -8 -33
5 -103 16 -86 4 7 3 25 -3 41 -26 68 22 73 58 5 19 -36 19 -38 1 -50 -31 -23
-8 -35 65 -35 93 0 94 16 2 35 -26 5 -33 12 -33 29 0 23 28 56 48 56 25 0 19
20 -18 59 -21 22 -41 41 -43 41 -3 0 -7 -9 -10 -20z"/>
<path d="M1075 5642 c-3 -3 -5 -13 -5 -22 0 -14 13 -18 63 -23 51 -6 66 -12
85 -34 l24 -28 -21 41 c-11 23 -28 45 -38 48 -30 12 -102 24 -108 18z"/>
<path d="M8635 5639 c-14 -21 5 -57 39 -73 43 -20 61 -20 97 1 22 13 29 24 27
43 -4 32 -35 39 -54 11 -20 -28 -39 -26 -70 4 -28 28 -30 29 -39 14z"/>
<path d="M1073 5543 c3 -10 13 -70 23 -134 l17 -117 99 -7 c55 -4 102 -4 105
-1 3 3 -6 19 -21 36 -14 17 -26 37 -26 45 0 7 -7 18 -15 25 -9 7 -13 15 -10
18 3 3 -4 12 -16 20 -11 8 -18 20 -15 29 3 8 2 12 -3 9 -5 -3 -14 7 -21 23
-20 48 -47 71 -86 71 -29 0 -34 -3 -31 -17z"/>
<path d="M8936 5035 c9 -28 9 -57 -1 -79 -7 -17 -5 -18 16 -11 13 4 33 7 44 7
11 0 31 -3 44 -7 21 -7 23 -6 16 11 -10 22 -10 51 -1 79 7 19 3 20 -59 20 -62
0 -66 -1 -59 -20z"/>
<path d="M8842 4774 c-29 -20 -27 -45 4 -67 32 -24 50 -17 59 24 6 25 3 35
-11 46 -23 16 -25 16 -52 -3z"/>
<path d="M1265 4570 c-3 -5 -2 -10 4 -10 5 0 13 5 16 10 3 6 2 10 -4 10 -5 0
-13 -4 -16 -10z"/>
<path d="M1338 4383 c7 -3 16 -2 19 1 4 3 -2 6 -13 5 -11 0 -14 -3 -6 -6z"/>
<path d="M8750 4345 c0 -11 50 -49 105 -80 64 -36 115 -53 115 -39 0 15 -104
82 -161 103 -60 23 -59 23 -59 16z"/>
<path d="M8726 4211 c5 -5 23 -12 39 -16 l30 -6 -25 15 c-28 17 -60 22 -44 7z"/>
<path d="M1336 3965 c-21 -22 -20 -38 5 -61 15 -14 24 -16 37 -7 24 14 21 53
-4 70 -19 12 -24 12 -38 -2z"/>
<path d="M1410 3790 c-32 -68 -48 -80 -124 -93 -36 -6 -66 -14 -66 -18 0 -3
25 -29 56 -57 l55 -51 -6 -48 c-3 -26 -8 -59 -11 -71 -3 -13 -1 -22 3 -20 4 2
32 16 62 32 l55 28 63 -26 c81 -33 84 -33 72 6 -5 18 -9 51 -9 73 0 34 7 46
51 91 l51 52 -61 7 c-73 8 -99 27 -131 94 -13 28 -26 51 -30 51 -4 0 -17 -22
-30 -50z"/>
<path d="M8720 3790 c-32 -68 -47 -79 -121 -91 -35 -6 -66 -12 -69 -15 -2 -3
19 -28 48 -56 l52 -50 -6 -69 c-4 -39 -3 -69 2 -69 5 0 29 11 53 25 54 31 58
31 125 -2 31 -15 57 -25 60 -22 2 2 -1 33 -7 69 l-10 64 58 53 c40 35 54 54
45 57 -8 2 -42 10 -75 18 -59 13 -61 14 -90 70 -17 31 -33 59 -36 62 -3 3 -16
-17 -29 -44z"/>
<path d="M2670 3772 c-49 -24 -76 -80 -61 -125 18 -54 55 -82 108 -82 39 0 49
5 80 39 32 34 35 43 30 80 -4 30 -15 49 -41 73 -40 37 -66 41 -116 15z m82
-49 c24 -22 23 -49 -4 -67 -31 -22 -54 -20 -72 5 -13 19 -13 25 0 50 17 33 48
38 76 12z"/>
<path d="M8510 3410 c0 -5 5 -10 10 -10 6 0 10 5 10 10 0 6 -4 10 -10 10 -5 0
-10 -4 -10 -10z"/>
<path d="M1609 3271 c-42 -42 -41 -99 2 -135 41 -35 83 -34 120 3 42 42 41 99
-2 135 -41 35 -83 34 -120 -3z m108 -37 c15 -24 15 -29 2 -53 -21 -37 -72 -41
-94 -8 -25 39 0 87 46 87 20 0 34 -8 46 -26z"/>
<path d="M8499 3271 c-42 -42 -41 -99 2 -135 41 -35 83 -34 120 3 21 22 29 39
29 66 0 48 -44 95 -90 95 -22 0 -41 -9 -61 -29z m101 -30 c14 -28 12 -67 -4
-80 -24 -20 -69 -9 -85 20 -13 24 -13 29 2 53 22 32 71 36 87 7z"/>
<path d="M2914 3212 c21 -40 86 -121 146 -181 l51 -51 -98 45 c-53 25 -119 59
-146 76 -27 17 -52 27 -56 24 -11 -12 63 -67 144 -105 66 -32 277 -100 309
-100 5 0 -35 33 -90 73 -54 40 -136 112 -180 160 -45 48 -84 87 -88 87 -4 0 0
-13 8 -28z"/>
<path d="M7257 3169 c-58 -69 -169 -165 -256 -221 -25 -15 -40 -28 -34 -28 6
0 66 16 134 35 126 37 231 85 290 134 47 40 29 51 -24 14 -23 -16 -89 -51
-146 -76 l-104 -47 68 69 c74 76 139 163 134 179 -2 6 -30 -21 -62 -59z"/>
<path d="M1790 3072 c-50 -27 -73 -80 -68 -157 8 -123 81 -214 180 -223 39 -4
61 -12 86 -33 54 -48 143 -35 187 28 44 63 12 167 -60 192 -82 28 -175 -23
-175 -96 0 -53 -11 -67 -48 -58 -37 8 -93 60 -116 110 -51 108 6 249 81 200
13 -9 29 -27 35 -41 13 -28 32 -27 36 3 2 13 -11 31 -42 56 -24 21 -48 37 -53
37 -4 0 -24 -8 -43 -18z m320 -227 c34 -18 50 -43 50 -79 0 -81 -89 -132 -147
-84 -19 15 -16 22 16 36 38 17 57 69 42 112 -12 35 -4 37 39 15z m-74 -42 c6
-20 2 -31 -16 -45 -32 -26 -40 -23 -40 15 0 56 44 80 56 30z"/>
<path d="M8353 3059 c-45 -36 -55 -52 -47 -73 7 -19 24 -21 24 -3 0 24 40 57
68 57 41 0 63 -21 72 -68 17 -95 -29 -199 -103 -233 -64 -29 -72 -26 -72 25 0
56 -29 97 -81 114 -73 24 -150 -9 -176 -78 -13 -35 0 -96 29 -130 41 -50 134
-53 184 -7 16 15 42 26 72 29 69 8 120 48 157 121 61 123 31 238 -72 271 -10
3 -32 -8 -55 -25z m-193 -228 c-19 -36 -11 -63 30 -102 l40 -38 -22 -16 c-35
-24 -67 -18 -104 19 -26 26 -34 42 -34 70 0 44 36 86 75 86 22 0 24 -3 15 -19z
m90 -20 c18 -35 12 -61 -14 -61 -32 0 -50 24 -42 55 8 30 41 34 56 6z"/>
<path d="M2530 2330 c0 -5 11 -10 25 -10 14 0 25 5 25 10 0 6 -11 10 -25 10
-14 0 -25 -4 -25 -10z"/>
<path d="M7655 2330 c-4 -6 6 -10 22 -10 22 0 25 2 13 10 -19 12 -27 12 -35 0z"/>
<path d="M2510 2250 c0 -6 33 -10 79 -10 44 0 83 5 86 10 4 6 -25 10 -79 10
-51 0 -86 -4 -86 -10z"/>
<path d="M7560 2250 c0 -6 33 -10 80 -10 47 0 80 4 80 10 0 6 -33 10 -80 10
-47 0 -80 -4 -80 -10z"/>
<path d="M2490 2145 c-26 -31 18 -71 47 -42 19 19 8 57 -16 57 -10 0 -24 -7
-31 -15z"/>
<path d="M7677 2141 c-11 -45 42 -71 63 -30 9 15 8 24 -1 35 -17 20 -56 18
-62 -5z"/>
<path d="M4810 2109 c0 -4 25 -35 56 -69 l57 -61 -7 -52 c-20 -149 -20 -150
18 -62 20 44 35 91 36 104 0 15 -17 40 -46 70 -39 39 -44 48 -35 64 11 16 8
18 -34 16 -25 -2 -45 -6 -45 -10z"/>
<path d="M5357 2102 c3 -13 -10 -32 -42 -63 -38 -36 -45 -48 -40 -69 12 -46
58 -171 62 -166 2 2 -1 41 -7 86 -11 81 -11 83 15 119 14 21 39 50 55 66 17
16 30 32 30 35 0 3 -18 7 -39 8 -34 2 -39 0 -34 -16z"/>
<path d="M2745 2010 c-21 -41 -19 -108 5 -147 55 -91 205 -85 205 8 0 27 -4
35 -21 37 -18 3 -23 -4 -28 -32 -9 -46 -41 -56 -88 -29 -44 25 -78 117 -61
163 14 38 8 39 -12 0z"/>
<path d="M7474 1975 c-1 -67 -28 -116 -74 -131 -50 -17 -70 -8 -70 32 0 38
-12 49 -39 35 -37 -20 -33 -66 8 -98 26 -20 100 -15 139 9 46 28 76 95 67 148
-11 64 -30 67 -31 5z"/>
<path d="M7096 2011 c-3 -5 1 -14 9 -21 13 -10 15 -9 15 9 0 21 -14 28 -24 12z"/>
<path d="M3112 1999 c2 -6 8 -10 13 -10 5 0 11 4 13 10 2 6 -4 11 -13 11 -9 0
-15 -5 -13 -11z"/>
<path d="M5089 1830 c-15 -11 -60 -36 -100 -56 -81 -40 -109 -60 -109 -80 0
-18 61 4 159 57 l75 40 119 -56 c65 -32 121 -55 124 -51 7 7 -25 56 -37 56 -5
0 -33 14 -62 31 -73 44 -136 79 -140 79 -2 0 -15 -9 -29 -20z"/>
<path d="M5120 1666 c0 -19 5 -38 10 -41 6 -4 10 10 10 34 0 23 -4 41 -10 41
-5 0 -10 -15 -10 -34z"/>
<path d="M4990 1580 c0 -33 4 -60 10 -60 6 0 10 27 10 60 0 33 -4 60 -10 60
-6 0 -10 -27 -10 -60z"/>
<path d="M5240 1576 c0 -37 4 -66 10 -66 6 0 10 26 10 59 0 33 -4 63 -10 66
-6 4 -10 -18 -10 -59z"/>
<path d="M3650 1583 c0 -5 -16 -75 -35 -158 -38 -162 -42 -201 -21 -228 33
-43 828 -210 1046 -219 l65 -3 12 40 c6 22 26 105 43 185 18 80 34 152 36 161
4 13 -6 18 -43 23 -216 30 -867 152 -1048 196 -49 12 -55 12 -55 3z m238 -159
c70 -49 66 -147 -7 -183 -88 -43 -192 49 -152 135 24 54 113 81 159 48z"/>
<path d="M6535 1580 c-260 -67 -969 -200 -1064 -200 -31 0 -33 -1 -25 -27 4
-16 23 -104 43 -198 34 -158 38 -170 62 -179 70 -24 1034 169 1089 219 11 10
20 30 19 44 0 45 -73 344 -84 347 -6 1 -23 -2 -40 -6z"/>
</g>
</svg>
